<?xml version="1.0" encoding="UTF-8"?>
<!DOCTYPE svg PUBLIC "-//W3C//DTD SVG 1.1//EN" "http://www.w3.org/Graphics/SVG/1.1/DTD/svg11.dtd">
<!-- Creator: CorelDRAW 2020 (64-Bit) -->
<svg xmlns="http://www.w3.org/2000/svg" xml:space="preserve" width="65.5236mm" height="59.3218mm" version="1.1" style="shape-rendering:geometricPrecision; text-rendering:geometricPrecision; image-rendering:optimizeQuality; fill-rule:evenodd; clip-rule:evenodd"
viewBox="0 0 1487.03 1346.28"
 xmlns:xlink="http://www.w3.org/1999/xlink"
 xmlns:xodm="http://www.corel.com/coreldraw/odm/2003">
 <defs>
  <style type="text/css">
   <![CDATA[
    .fil0 {fill:#2B2A29}
   ]]>
  </style>
 </defs>
 <g id="Vrstva_x0020_1">
  <metadata id="CorelCorpID_0Corel-Layer"/>
  <path class="fil0" d="M485.8 1323.21c19.04,-39.91 32.37,-83.94 36.64,-121.02 3.15,-27.34 1.6,-90.42 -2.77,-112.35 -3.68,-18.5 -12.3,-50.22 -19.95,-73.44 -13.26,-40.27 -7.97,-111.15 10.48,-140.29 9.5,-15.01 24.93,-37.8 28.17,-41.6 1.5,-1.76 3.17,-8 3.73,-13.86 1,-10.5 7.14,-28.26 9.09,-26.31 0.55,0.55 -0.9,7.65 -3.23,15.78 -4.47,15.62 -5.5,29.75 -2.32,31.71 1.05,0.65 5.13,-5.05 9.06,-12.66 3.94,-7.61 7.76,-13.84 8.51,-13.85 2.04,-0.02 -4,16.29 -12.18,32.92 -4.01,8.14 -7.29,16.05 -7.29,17.59 0,9.88 14.15,-7.58 25.7,-31.74 6.05,-12.64 8.1,-15.57 7.16,-10.25 -2.14,12.14 -13.31,33.57 -23.43,44.96 -5.19,5.84 -9.43,11.39 -9.43,12.33 0,11.74 28.14,-15.97 40.17,-39.55 6.91,-13.54 12.65,-36.87 14.32,-58.18 0.83,-10.65 2.35,-19.88 3.37,-20.51 1.02,-0.63 1.85,-0.13 1.85,1.11 0,3.8 4.99,2.54 13.89,-3.51 50.15,-34.07 118.17,-54.14 183.36,-54.09 21.29,0.02 89.58,6 121.54,10.66 24.89,3.62 102.07,0.08 139.67,-6.4 51.72,-8.92 71.23,-14.84 132.21,-40.11 43.79,-18.15 56.49,-21.51 98.29,-25.95l24.73 -2.63 19.15 8.82c31.81,14.65 57.06,17.02 82.81,7.75 19.24,-6.93 24.52,-10.94 30.36,-23.08 6.91,-14.37 8.06,-29.31 3.74,-48.31 -6.29,-27.64 -6.25,-30.01 0.66,-47.29 3.51,-8.76 9.7,-21.13 13.76,-27.5 13.69,-21.47 18.88,-34.87 19.29,-49.9 0.38,-13.56 0.19,-14.09 -8.16,-22.44 -5.04,-5.04 -13.31,-10.29 -20.17,-12.8 -12.94,-4.73 -34.24,-5.92 -43.23,-2.41 -16.41,6.41 -25.98,11.88 -37.41,21.4 -30.26,25.19 -49.74,63.37 -56.66,111.07l-2.94 20.26 -0.24 -17.06c-0.27,-18.92 2.66,-32.26 11.12,-50.71 3.11,-6.78 5.65,-13.15 5.65,-14.16 0,-1.01 5.59,-10.34 12.41,-20.74 16.05,-24.44 37.78,-44.47 57.29,-52.81 16.75,-7.16 19.86,-9.22 19.86,-13.15 0,-1.56 -4.8,-11.18 -10.66,-21.37 -5.86,-10.19 -10.66,-18.88 -10.66,-19.3 0,-3.26 -39.46,-60.23 -51.76,-74.73 -8.48,-9.99 -17.48,-21.02 -20,-24.51 -14.07,-19.42 -56.37,-54.4 -82.84,-68.5 -3.52,-1.87 -18.18,-15.38 -32.58,-30.01 -21.07,-21.41 -32.31,-30.72 -57.58,-47.68 -40.21,-27 -90.15,-51.75 -119.34,-59.14 -6.75,-1.7 -17.55,-4.68 -24,-6.6 -14.22,-4.23 -26.43,-6.75 -44.78,-9.24 -7.63,-1.03 -15.37,-2.5 -17.21,-3.25 -1.84,-0.76 -17.68,-2.23 -35.19,-3.28 -33.12,-1.98 -43.11,-3.56 -68.08,-10.83 -15.11,-4.39 -24.4,-6.86 -38.92,-10.34 -4.4,-1.05 -12.79,-3.07 -18.66,-4.48 -12.46,-3 -29.48,-5.74 -53.31,-8.59 -9.38,-1.12 -24.74,-3.17 -34.12,-4.54 -9.58,-1.4 -41.15,-2.51 -72.01,-2.52 -53.08,-0.01 -55.17,0.15 -61.22,4.62 -3.45,2.55 -8.2,4.63 -10.57,4.63 -2.67,0 -13.19,9.09 -27.75,23.99 -12.9,13.19 -24.19,24.69 -25.1,25.56 -28.79,27.19 -43.43,42.32 -55.2,57.07 -7.95,9.97 -15.08,18.61 -15.83,19.19 -1.42,1.1 -19.65,28.06 -26.68,39.45 -4.07,6.6 -12.78,23.82 -24.25,47.95 -3.62,7.6 -6.57,15.53 -6.57,17.62 0,2.09 -0.87,5.46 -1.93,7.49 -1.06,2.04 -3.6,9.94 -5.64,17.57 -2.04,7.62 -7.01,24.23 -11.05,36.91 -6.94,21.8 -7.3,24.46 -6.73,49.05 0.57,24.49 0.29,26.61 -4.96,36.66 -3.06,5.86 -10.98,22.18 -17.58,36.25 -6.61,14.08 -12.93,27.26 -14.05,29.29 -1.12,2.04 -2.03,5.45 -2.03,7.57 0,2.13 -0.86,4.78 -1.91,5.9 -2.59,2.75 -5.23,15.89 -3.2,15.89 0.9,0 3.99,-2.16 6.87,-4.8l5.24 -4.8 -1.47 10.66c-0.81,5.86 -1.98,17.38 -2.61,25.59 -1.91,25.03 -5.9,31.65 -20.59,34.19 -16.97,2.93 -24.31,-11.63 -14.15,-28.07 3.45,-5.57 3.7,-6.9 1.15,-5.92 -1.81,0.69 -3.92,3.33 -4.69,5.86 -0.77,2.53 -2.79,6.19 -4.48,8.12 -5.29,6.03 -0.22,19.72 8.89,24.04 7.03,3.34 7.34,3.95 6.36,12.5 -4.77,41.43 -5.89,52.38 -7.45,72.96 -2.18,28.69 -2.57,62.91 -0.71,62.91 0.75,0 2.59,-1.68 4.09,-3.73 7.56,-10.34 4.41,2.97 -9.7,41.05 -2.61,7.04 -6.12,18.04 -7.81,24.46 -3.71,14.13 -7.97,19.25 -16,19.25 -3.34,0 -6.07,0.96 -6.07,2.13 0,1.17 3.29,2.13 7.31,2.13 10.11,0 16.69,-8.74 21.65,-28.79 1.5,-6.05 1.67,-5.83 3.28,4.27 0.93,5.86 1.35,25.84 0.94,44.38l-0.75 33.72 10.85 16.06c13.25,19.61 41.09,46 56.95,53.98 23.74,11.94 60.35,21.4 82.87,21.4l9.89 -0 0.27 9.06c0.15,4.98 1.01,24.52 1.91,43.42 2.44,51.04 -4.38,106.57 -20.77,169.28 -4.75,18.18 -10.2,40.56 -12.11,49.73 -1.91,9.18 -4.13,16.02 -4.94,15.21 -0.81,-0.81 -1.04,-4 -0.52,-7.08 3.66,-21.54 10.15,-53.96 14.81,-73.85 15.31,-65.47 20.59,-106.62 19.12,-148.78 -1.57,-44.76 -2.65,-52.74 -7.14,-52.74 -3.41,0 -3.73,3.17 -3.76,36.78 -0.03,45.06 -2.37,57.91 -20.83,114.34 -7.53,23.03 -14.82,47.62 -16.19,54.66 -1.38,7.04 -3.84,19.22 -5.49,27.07 -4.43,21.14 -3.89,34.1 1.8,43.2 16.8,26.82 32.3,48.08 35.06,48.08 1.54,0 2.79,1.78 2.79,3.94 0,3.48 11,20.95 14.98,23.77 0.82,0.59 4.61,7.55 8.41,15.46 3.8,7.91 7.56,14.39 8.35,14.39 0.79,0 2.53,-7.92 3.87,-17.59 1.34,-9.68 7.46,-33.91 13.61,-53.84 21.12,-68.5 25.33,-90.99 26.09,-139.41 0.22,-14 1.12,-25 2,-24.46 2.33,1.44 1.96,38.39 -0.66,65.68 -3.68,38.3 -6.39,51.73 -17.1,84.68 -9.64,29.64 -22.35,77.63 -23.64,89.21 -0.75,6.75 8.51,29.85 11.97,29.85 1.43,0 7.55,-10.39 13.6,-23.08zm-39.47 -71.15c0.68,-1.7 1.19,-1.2 1.29,1.29 0.09,2.25 -0.41,3.51 -1.12,2.8 -0.71,-0.71 -0.78,-2.55 -0.17,-4.09l0 0zm4.78 -24.83c2.03,-7.82 5.9,-22.04 8.59,-31.6 5.51,-19.59 10.48,-42.73 14.61,-67.91 3.54,-21.62 3.51,-21.04 3.47,-62.64 -0.03,-36.45 -2.61,-59.1 -11.88,-104.54 -5.65,-27.71 -5.83,-35.34 -0.42,-17.95 10,32.12 14.67,64.36 17.56,121.31 1.95,38.37 -5.71,89.17 -21.37,141.65 -5.07,17.01 -9.95,33.8 -10.83,37.32 -1.19,4.77 -1.83,5.4 -2.52,2.49 -0.5,-2.15 0.75,-10.3 2.79,-18.13l0 0zm-17.48 -40.44c3,-12.55 7.5,-31.46 10,-42.01 2.5,-10.56 6.24,-30.71 8.31,-44.78 6.85,-46.55 2.86,-152.43 -6.39,-169.73 -1.64,-3.06 -1.47,-4.06 0.71,-4.06 1.83,0 4.2,5.66 6.47,15.46 9.6,41.43 11.95,99.68 5.84,144.48 -5.44,39.82 -13.75,80.66 -19.25,94.5 -1.01,2.55 -3.59,11.14 -5.73,19.08 -6.07,22.54 -6.04,12.52 0.05,-12.94l-0 -0zm61.48 -147.57c-0.09,-4.84 0.06,-4.94 1.73,-1.07 1.01,2.35 1.79,7.62 1.73,11.73l-0.1 7.46 -1.63 -6.4c-0.9,-3.52 -1.67,-8.8 -1.73,-11.73l0 0zm-69.92 -140.24c-1.29,-0.86 -3.52,-3.79 -4.95,-6.51 -2.31,-4.38 -1.61,-6.6 6.04,-19.19 14.92,-24.58 18.37,-27 20.35,-14.25 0.64,4.1 1.71,10.94 2.38,15.2 0.67,4.25 0.06,10.53 -1.36,13.95 -3.75,9.05 -16.15,15.02 -22.45,10.81l0 0zm-55.5 -85.62c-8,-3.63 -14.21,-8.94 -9.99,-8.54 4.73,0.45 26.76,12.32 23.05,12.42 -2.34,0.07 -8.22,-1.68 -13.06,-3.88zm-7.08 -52.36c-16.86,-9.09 -39.16,-24.75 -42.16,-29.61 -1.54,-2.49 2.77,-0.01 34.59,19.93 32.87,20.6 36.55,25.3 7.58,9.67l0 0zm32.47 -22.45c-5.1,0 -5.89,-1.47 -3.13,-5.81 1.23,-1.94 3.65,-2.07 9.33,-0.5 6.2,1.71 7.62,3.09 7.37,7.16 -0.28,4.58 -0.69,4.77 -4.51,2.09 -2.31,-1.62 -6.39,-2.95 -9.06,-2.95l0 0zm49.55 -2.13c-3.91,0 -4.72,-0.91 -3.84,-4.27 1.29,-4.95 6.25,-5.24 18.74,-1.13 5.82,1.92 7.04,2.88 3.86,3.03 -2.57,0.12 -5.31,1.25 -6.08,2.5 -0.78,1.25 -2.83,1.73 -4.57,1.07 -1.74,-0.67 -5.39,-1.21 -8.12,-1.21l0 0zm41.56 -9.6c0,-3.59 0.39,-3.73 5.14,-1.91 3.9,1.5 2.44,5.11 -2.07,5.11 -1.69,0 -3.07,-1.44 -3.07,-3.2l0 0zm129.18 -31.07c1.19,-35.69 2.78,-46.62 9.36,-64.2 5.32,-14.21 16.36,-30.2 19.51,-28.25 1.23,0.76 12.78,-4.1 25.66,-10.79 12.88,-6.69 24,-11.6 24.7,-10.9 1.6,1.6 2.64,0.79 -17.56,13.76 -9.38,6.02 -22.86,13.42 -29.96,16.44 -11.83,5.03 -20.06,12.4 -17.11,15.35 3.91,3.91 45.48,-16.19 71.44,-34.53 7.54,-5.33 14.22,-9.18 14.84,-8.55 1.79,1.79 -16.16,16.85 -36.9,30.95 -20.46,13.92 -33.87,21.2 -46.58,25.32 -7.95,2.57 -12.25,7.43 -12.25,13.84 0,5.22 5.55,4.03 25.35,-5.46 22.11,-10.58 42.78,-24.23 70.31,-46.41 23.28,-18.75 26.39,-20.89 24.59,-16.88 -2.09,4.66 -49.87,45.9 -68.17,58.84 -9.47,6.7 -25.53,16.49 -35.69,21.77 -14.86,7.72 -18.48,10.53 -18.5,14.39 -0.03,6.86 4.19,6.1 23,-4.16 31.69,-17.28 47.55,-29 80.4,-59.39 25.01,-23.14 31.09,-28.16 32.44,-26.8 2.08,2.08 -39.31,44.85 -63.36,65.49 -16.93,14.52 -46.5,36.98 -61.44,46.66 -10.86,7.04 -13.73,10.71 -8.35,10.71 3.07,0 30.41,-17.6 49.58,-31.91 18.23,-13.61 42.5,-35.7 76.26,-69.4 16.16,-16.14 29.97,-28.76 30.68,-28.05 3.18,3.18 -36.28,45.88 -63.92,69.19 -21.87,18.44 -66.81,50.94 -83.11,60.11 -9.84,5.54 -12.07,7.75 -11.05,10.96 0.87,2.75 0.24,4.02 -1.98,4.02 -2.83,0 -3.12,-4.26 -2.19,-32.14l-0 0zm9.7 26.89c0.54,-0.54 7.89,-4.62 16.33,-9.06 32.99,-17.36 109.12,-73.53 143.25,-105.69 7.75,-7.3 20.77,-20.9 28.94,-30.22 23.95,-27.32 26.39,-29.8 27.89,-28.3 3.04,3.04 -44.47,53.89 -75.95,81.29 -36.95,32.16 -55.88,46.24 -98.09,72.92 -16.92,10.7 -47.99,24.67 -42.38,19.06l0 0zm-174.57 -16.46c3.17,-2 -20.28,-24.37 -27.74,-26.45 -2.63,-0.74 -4.22,-2.25 -3.53,-3.37 0.69,-1.12 -4.36,-7.97 -11.21,-15.23 -11.58,-12.27 -13.82,-13.62 -31.66,-19.18 -26.08,-8.12 -28.79,-8.71 -28.79,-6.23 0,4.61 26.21,26.09 40.97,33.58l15.54 7.88 -10.13 -1.43c-8.6,-1.21 -10.13,-0.89 -10.13,2.12 0,2.71 -1.91,1.89 -8,-3.42 -4.4,-3.83 -8.48,-8.07 -9.06,-9.42 -0.59,-1.35 -8.03,-10.6 -16.54,-20.55 -14.48,-16.93 -25.13,-33.44 -22.96,-35.6 0.52,-0.52 5.54,2.8 11.16,7.38 17.08,13.93 26.79,19.61 37.69,22.03 5.73,1.27 10.94,1.78 11.59,1.14 0.65,-0.64 -0.88,-3.79 -3.4,-7 -2.51,-3.21 -12.53,-17.59 -22.25,-31.95 -9.72,-14.37 -19.4,-26.68 -21.5,-27.36 -2.65,-0.86 -3.41,-2.51 -2.5,-5.4 0.78,-2.47 -0.48,-7.22 -3.11,-11.68 -5.18,-8.79 -5.3,-9.42 -1.77,-9.33 1.47,0.03 6.02,4.53 10.13,9.98 9.97,13.24 32.09,31.25 43.96,35.78 5.29,2.02 9.99,3.28 10.47,2.81 1.18,-1.18 -34.87,-71.62 -37.48,-73.23 -1.15,-0.71 -1.55,-2.18 -0.88,-3.26 0.67,-1.08 -2.09,-10.37 -6.12,-20.64 -4.04,-10.27 -7.93,-21.26 -8.65,-24.41 -2.24,-9.78 1.79,-8.3 5.91,2.18 9.61,24.4 15.74,33.77 35.44,54.09 26.58,27.43 31.29,27.78 19.47,1.47 -3.37,-7.49 -8.78,-21.3 -12.03,-30.68 -3.25,-9.38 -7.33,-18.7 -9.06,-20.71 -1.74,-2.01 -2.65,-4.98 -2.03,-6.6 0.62,-1.62 -0.62,-10.53 -2.76,-19.81 -5.49,-23.78 -7.3,-40.57 -4.57,-42.25 1.34,-0.83 3.18,2.3 4.56,7.74 9.38,37.06 19.75,55.98 47.93,87.47 11.85,13.25 18.19,17.54 18.19,12.33 0,-1.98 -4.69,-15.36 -8.61,-24.57 -1,-2.35 -4.4,-13.86 -7.56,-25.59 -3.16,-11.73 -7.09,-23.51 -8.74,-26.18 -1.65,-2.67 -2.35,-5.89 -1.57,-7.16 0.78,-1.26 0.32,-9.15 -1.02,-17.53 -6.86,-42.85 -8.28,-57.28 -6.31,-64.41 1.11,-4.03 2.81,-7.34 3.77,-7.34 0.96,0 3.92,6 6.57,13.33 2.65,7.33 7.08,17.65 9.84,22.92 6.28,12.01 22.97,30.92 25.77,29.19 1.32,-0.81 1.43,-5.85 0.3,-13.64 -0.99,-6.79 -1.88,-26.67 -1.98,-44.17 -0.1,-17.5 -1.08,-34.18 -2.17,-37.05 -1.47,-3.87 -1.18,-5.85 1.11,-7.63 1.7,-1.32 4.18,-6.58 5.52,-11.68 1.33,-5.1 2.73,-8.94 3.1,-8.53 0.38,0.41 1.73,8.66 3.01,18.33 1.28,9.67 3.9,22.37 5.81,28.22 4.23,12.92 22.59,45.46 25.47,45.14 1.87,-0.22 3.73,-21.14 5.62,-63.21 0.37,-8.21 -0.16,-17.63 -1.18,-20.95 -1.56,-5.08 -1.28,-5.91 1.81,-5.33 2.87,0.54 5.19,-3.58 10.76,-19.09 8.07,-22.46 15.88,-36.65 15.94,-28.92 0.02,2.53 -1.97,10.69 -4.42,18.13 -5.36,16.26 -7.88,56.02 -4.36,68.99 2.54,9.38 14,28.76 17.01,28.76 1.04,0 2.53,-6.34 3.33,-14.08 3.65,-35.63 13.46,-65.74 36.5,-112.03 5.26,-10.56 9.56,-21.59 9.56,-24.51 0,-2.91 0.9,-4.74 2,-4.06 2.37,1.47 4.44,-0.78 13.24,-14.41 3.63,-5.62 7.07,-9.75 7.65,-9.18 0.57,0.57 -1.66,8.53 -4.97,17.69 -4.75,13.14 -6,20.23 -5.94,33.7 0.07,15.57 2.87,26.66 6.76,26.65 0.84,-0 7.09,-10.8 13.89,-23.99 20.53,-39.82 37.33,-67.07 46.43,-75.31 5.52,-5 5.31,-4.17 -3.59,13.89 -11.98,24.31 -16.1,40.97 -14.79,59.82l1.11 15.99 -3.08 -11.73c-1.7,-6.45 -3.12,-14.93 -3.17,-18.84 -0.12,-10.02 -3.84,-7.79 -12.04,7.24 -10.15,18.58 -14.46,38.19 -13.02,59.27 1.29,18.93 6.95,38.29 10.82,37.01 1.34,-0.44 3.98,-6.49 5.88,-13.43 1.9,-6.94 6.45,-20.3 10.12,-29.68 3.67,-9.38 6.67,-18.66 6.68,-20.61 0.01,-1.96 0.78,-3.87 1.72,-4.27 0.94,-0.39 7.72,-11.26 15.06,-24.17 7.34,-12.9 14.21,-24.9 15.26,-26.65 1.05,-1.76 2.52,-12.62 3.27,-24.14 0.75,-11.52 1.75,-20.55 2.22,-20.08 0.94,0.94 2.38,12.09 2.75,21.29 0.29,7.12 5.07,7.74 8.21,1.07 3.11,-6.6 36.42,-45.87 46.11,-54.38 10.09,-8.85 13.53,-8.85 8.2,0 -8.16,13.55 -15.8,36.63 -17.42,52.59 -0.9,8.9 -0.99,16.91 -0.2,17.8 1.29,1.45 33.09,-36.1 43.83,-51.75 2.35,-3.42 5.22,-6.26 6.4,-6.3 1.17,-0.05 7.89,-5.14 14.93,-11.32 16.37,-14.36 30.57,-23.94 32.54,-21.97 0.85,0.85 -0.37,2.58 -2.71,3.84 -2.34,1.26 -10.96,9.11 -19.17,17.43 -16.21,16.43 -26.48,34.4 -31.94,55.87l-3.2 12.58 1.17 -12.79c0.65,-7.04 1.66,-14.47 2.26,-16.53 0.68,-2.35 -0.07,-3.73 -2.04,-3.73 -4.37,0 -25.45,28.42 -32.22,43.45 -10.33,22.91 -15.16,56.08 -8.5,58.27 1.26,0.41 4.8,-3.83 7.86,-9.43 3.06,-5.6 10.9,-17.84 17.43,-27.19 7.75,-11.12 11.86,-19.14 11.86,-23.18 0,-5.34 0.45,-5.81 3.3,-3.45 2.82,2.34 5.36,0.45 17.56,-13.07 7.85,-8.69 20.75,-22.18 28.69,-29.98 7.93,-7.8 14.42,-15.23 14.42,-16.53 0,-1.29 1.2,-2.35 2.66,-2.35 1.47,0 10.9,-6.18 20.95,-13.72 17.2,-12.91 36.59,-24.66 40.69,-24.66 1.01,0 0.63,1.92 -0.83,4.27 -1.47,2.34 -3.98,4.26 -5.6,4.26 -1.61,0 -7.86,3.52 -13.88,7.82 -27.51,19.65 -45,43.03 -48.8,65.26 -4.25,24.78 -2.29,24.56 25.21,-2.83 23.25,-23.16 24.71,-25.14 28.85,-39 2.4,-8.03 4.77,-14.19 5.28,-13.68 0.51,0.51 -0.51,5.64 -2.26,11.4 -1.75,5.76 -3.19,10.82 -3.2,11.24 -0.06,1.92 6.8,-2.33 22.45,-13.92 20.52,-15.21 37.77,-25.81 44.89,-27.59l5.27 -1.32 -4.56 11.44c-8.62,21.61 -10.58,28.21 -8.88,29.91 0.94,0.93 7.31,-1.68 14.16,-5.81 13.03,-7.85 19.82,-8.13 8.74,-0.36 -9.9,6.93 -26.28,25.07 -32.25,35.69 -4.4,7.83 -15.7,43.46 -15.72,49.58 -0.01,3.68 7.16,1.2 11.12,-3.84 7.28,-9.25 6.37,-4.47 -2.51,13.28 -4.68,9.35 -10.7,25.8 -13.36,36.54 -2.67,10.74 -5.6,19.55 -6.52,19.56 -4.06,0.07 6.53,-60.03 18.33,-103.93 3,-11.15 4.45,-20.26 3.35,-20.94 -3.11,-1.92 -29.14,22.2 -39.19,36.32 -15.06,21.16 -22.2,38.24 -25.68,61.38 -3.47,23.09 -4.07,42.13 -1.33,42.13 0.99,0 4.33,-4.56 7.43,-10.13 10.5,-18.87 18.83,-26.59 10.26,-9.51 -9.84,19.61 -19.48,58.11 -19.48,77.87 -0,5.53 -0.78,7.65 -2.43,6.62 -1.68,-1.03 -2.05,-7.36 -1.21,-20.38 1.01,-15.55 0.68,-18.88 -1.84,-18.88 -3.52,0 -3.92,-2.95 -1.11,-8.19 1.07,-2 2.52,-14.66 3.22,-28.11 0.7,-13.46 2.2,-32.6 3.34,-42.53 1.21,-10.53 1.28,-18.85 0.17,-19.96 -2.7,-2.7 -21.11,26.06 -27.55,43.06 -4.8,12.65 -5.46,18.06 -6.26,51.06 -0.88,36.52 0.18,51.58 3.65,51.58 0.98,0 2.34,-2.12 3.02,-4.71 2.19,-8.39 3.21,-3.04 1.3,6.84 -1.02,5.28 -1.99,17.27 -2.16,26.65 -0.27,14.82 -0.55,16.01 -2.19,9.09 -4.08,-17.28 -9.87,-64.92 -11.32,-93.06 -0.63,-12.18 -1.71,-22.7 -2.4,-23.4 -1.75,-1.76 -4.22,2.56 -11.83,20.72 -9.86,23.52 -13.34,45.52 -12.18,77.05 0.85,23.15 0.62,25.81 -1.79,20.26 -1.52,-3.52 -2.81,-8.37 -2.86,-10.79 -0.06,-2.41 -1.52,-6.25 -3.25,-8.53 -2.73,-3.58 -3.45,-3.71 -5.3,-0.94 -1.9,2.84 -2.14,2.84 -2.17,-0.02 -0.02,-1.77 0.83,-6.23 1.89,-9.92 1.29,-4.49 0.94,-11.89 -1.06,-22.37 -1.64,-8.62 -3.61,-23.34 -4.37,-32.73 -0.76,-9.38 -2.11,-18.98 -3,-21.33 -1.41,-3.72 -2.07,-3.2 -5.23,4.17 -6.2,14.46 -13.81,52.62 -14.05,70.47 -0.21,15.03 -0.5,16.23 -2.46,10.13 -4.73,-14.76 -7.93,-5.91 -7.97,22.06 -0.02,13.71 1.21,23.09 4.18,31.99 5.98,17.87 5.36,18.6 -3.41,4.06 -9.65,-15.99 -22.72,-49.19 -29.79,-75.65 -2.97,-11.12 -5.83,-20.65 -6.37,-21.18 -3.75,-3.75 -9.45,17.73 -9.38,35.41 0.08,25.3 4.18,43.54 14.26,63.56 4.67,9.27 7.09,15.99 5.76,15.99 -0.64,0 -6.41,-11.04 -12.82,-24.52 -6.41,-13.49 -12.46,-24.52 -13.44,-24.52 -3.1,0 -4.2,-21.89 -1.25,-24.84 1.47,-1.47 3.32,-7.27 4.11,-12.9 0.79,-5.63 3.32,-17.26 5.62,-25.85 4.18,-15.58 4.18,-15.66 -0.2,-39.45 -6.47,-35.17 -6.25,-34.39 -8.96,-31.68 -2.75,2.75 -7.16,13.98 -11.45,29.1 -4.38,15.45 -3.79,42.17 1.29,58.37 2.33,7.43 4.18,15.11 4.1,17.06 -0.2,5.38 -3.67,-4.38 -8.76,-24.68 -2.63,-10.49 -5.43,-17.47 -6.82,-17.01 -7.92,2.64 -10.11,43.21 -3.59,66.59 6.48,23.26 21.44,48.21 21.44,35.78 0,-7.04 3.85,0.43 7.33,14.22 1.91,7.58 4.77,16.39 6.36,19.56 4.21,8.44 -0.81,5.6 -7.23,-4.08 -11.62,-17.53 -19.98,-32.2 -27.34,-47.93 -9,-19.24 -13.13,-21.2 -13.47,-6.4 -0.52,22.32 3.6,39.32 15.36,63.38l8.37 17.12 -7.45 -8.53c-4.1,-4.69 -7.47,-9.25 -7.48,-10.13 -0.02,-0.88 -1.47,-1.6 -3.23,-1.6 -3.85,0 -3.86,0.27 -0.82,35.19 1.81,20.81 3.27,28.45 5.88,30.64 8.1,6.82 -8.41,-0.02 -21.19,-8.79 -7.27,-4.98 -16.21,-11.09 -19.87,-13.57 -3.66,-2.48 -12.89,-10.31 -20.51,-17.39 -12.71,-11.82 -13.96,-12.5 -15.12,-8.28 -1.08,3.95 -1.57,3.5 -3.51,-3.23 -2.09,-7.25 -31.53,-44.37 -35.21,-44.4 -4.41,-0.04 1.67,28.11 9.34,43.23 2.51,4.95 8.51,13.75 13.34,19.55l8.78 10.55 -6.93 -4.08c-3.81,-2.24 -6.93,-4.83 -6.93,-5.75 0,-0.92 -1.44,-1.67 -3.2,-1.67 -8.71,0 4.38,28.89 18.09,39.92 4.67,3.75 -0.27,3.43 -10.59,-0.7 -8.52,-3.41 -10.74,-6.15 -6.21,-7.66 2.08,-0.69 -4.2,-22.98 -11,-39.02 -1.63,-3.84 -4.65,-16.37 -13.37,-55.44 -2.24,-10.02 -5.75,-16.62 -16.19,-30.41 -7.33,-9.69 -14.17,-17.1 -15.18,-16.46 -2,1.23 -0.88,17 2.41,33.96 2.5,12.9 11.55,33.84 18.86,43.66 5.15,6.91 5.19,7.16 0.76,4.79 -2.57,-1.37 -5.26,-3.45 -5.98,-4.62 -0.72,-1.17 -2.8,-2.12 -4.62,-2.12 -2.66,0 -3.03,1.58 -1.89,8 2.48,13.98 12.03,30.54 25.64,44.4 12.92,13.18 12.35,13.8 -3.55,3.81 -16.27,-10.22 -11.19,5 9.23,27.62 12.37,13.71 15.11,20.36 6.06,14.71 -2.27,-1.43 -5.56,-2.59 -7.31,-2.59 -1.75,0 -6.32,-2.02 -10.16,-4.49 -3.84,-2.47 -5.3,-3.94 -3.25,-3.27 2.19,0.72 3.71,0.15 3.69,-1.37 -0.07,-4.03 -14.14,-40.24 -16.22,-41.76 -1.02,-0.74 -1.98,-4.71 -2.13,-8.82 -0.15,-4.1 -2.54,-16.56 -5.33,-27.68l-5.06 -20.21 -18.9 -19.74c-10.4,-10.86 -19.87,-19.15 -21.04,-18.42 -1.21,0.74 -1.61,5.15 -0.93,10.1 2.2,15.98 13.59,39.35 28.43,58.36 15.25,19.53 14.8,20.3 -3.07,5.18 -6.19,-5.23 -11.81,-8.95 -12.5,-8.26 -0.69,0.69 -0.11,6.03 1.29,11.86 3.44,14.34 21.78,41.79 33.37,49.96 11.26,7.94 10.76,9.8 -1.02,3.79 -9.84,-5.02 -15.18,-5.63 -15.3,-1.75 -0.05,1.47 -1.5,0.05 -3.24,-3.14 -1.73,-3.2 -5.19,-6.9 -7.67,-8.23 -3.52,-1.88 -3.88,-2.81 -1.63,-4.19 2.32,-1.43 1.35,-6.44 -5.05,-25.89 -4.36,-13.26 -7.92,-25.01 -7.92,-26.11 0,-1.1 -2.13,-4.27 -4.74,-7.04 -3.75,-3.99 -4.15,-5.41 -1.89,-6.81 2.23,-1.38 2.36,-3.36 0.62,-8.95 -1.24,-3.95 -3.91,-17.65 -5.95,-30.45 -3.49,-21.96 -4.19,-23.82 -12.4,-33.07 -4.78,-5.39 -13.41,-15.82 -19.19,-23.18 -5.77,-7.36 -11.2,-12.62 -12.07,-11.71 -2.07,2.19 1.38,23.49 6.85,42.18 2.4,8.21 9.08,23.47 14.86,33.92 11.22,20.29 12.39,25.51 2.95,13.14 -3.19,-4.18 -7.12,-7.6 -8.74,-7.6 -3.77,0 -3.78,-0.03 1.57,19.06 8.28,29.58 25.55,58.02 40.25,66.27 1.75,0.98 2.71,2.26 2.13,2.84 -0.58,0.58 -5.17,-1.75 -10.19,-5.17 -11,-7.5 -13.99,-7.85 -12.18,-1.43 5.5,19.46 23.71,41.84 40.51,49.8l10.66 5.05 1.06 -5.63c1.01,-5.34 1.23,-5.44 4.27,-1.75 1.76,2.14 7.04,6.71 11.73,10.16l8.53 6.27 -9.59 -1.54c-5.28,-0.85 -11.21,-2.39 -13.19,-3.43 -1.97,-1.03 -5.19,-1.88 -7.14,-1.88 -1.95,0 -6.82,-1.55 -10.82,-3.45 -5.81,-2.76 -7.9,-2.92 -10.42,-0.83 -2.55,2.12 -3.42,1.96 -4.49,-0.85 -0.74,-1.91 -9.62,-7.6 -19.75,-12.65 -10.13,-5.05 -20.53,-10.51 -23.12,-12.14 -7.61,-4.8 -7.93,-0.96 -0.94,11.26 7.63,13.33 21.45,27.7 32.83,34.12 10,5.65 10.14,7.99 0.46,7.99 -7.09,0 -7.4,0.29 -5.19,4.8 1.76,3.62 0.78,3.14 -4.01,-1.96 -3.49,-3.72 -8.32,-7.81 -10.72,-9.1 -2.66,-1.42 -3.89,-3.61 -3.13,-5.58 0.72,-1.87 -2.34,-8.38 -7.26,-15.43 -4.68,-6.7 -11.61,-18.19 -15.4,-25.52 -3.79,-7.33 -8.1,-13.33 -9.56,-13.33 -1.47,0 -11.21,-5.17 -21.64,-11.48 -10.44,-6.31 -19.28,-10.67 -19.66,-9.67 -0.38,1 2.98,9.27 7.46,18.4 9.15,18.63 28.84,40.4 46.53,51.45 12.45,7.78 11.71,8.35 -3.2,2.48 -13.32,-5.25 -12.78,-5.28 -12.83,0.53 -0.03,4.41 -0.37,4.28 -4.18,-1.67 -2.44,-3.81 -7.47,-7.6 -12.23,-9.21 -4.44,-1.5 -13.6,-5.12 -20.34,-8.04 -6.74,-2.92 -13.22,-4.72 -14.39,-4 -3.08,1.9 13.14,24.82 27.34,38.62 17.62,17.13 51.57,32.63 51.57,23.54 0,-1.58 -2.01,-4.68 -4.47,-6.9 -2.45,-2.22 -5.46,-5.97 -6.69,-8.33 -2.19,-4.23 -2.15,-4.22 2.86,0.09 13.08,11.26 35.64,22.27 45.65,22.27 7.21,0 6.66,-2.7 -2.71,-13.28 -4.4,-4.97 -5.95,-7.61 -3.45,-5.87 2.5,1.74 8.81,6.21 14.01,9.93 5.21,3.72 12.76,7.71 16.78,8.87l7.31 2.1 -6.8 0.19c-3.74,0.1 -7.34,1.05 -7.99,2.1 -0.69,1.11 -4.52,1.13 -9.19,0.05 -4.41,-1.02 -12.68,-1.88 -18.38,-1.91 -9.52,-0.05 -10.28,0.32 -9.2,4.46 1.15,4.4 1.05,4.39 -4.08,-0.43 -3.35,-3.15 -9.3,-5.51 -16.39,-6.5 -6.13,-0.86 -15.69,-2.23 -21.26,-3.05 -15.23,-2.23 -12.82,3.51 6.93,16.47 6.45,4.23 15.8,8.92 20.79,10.41 10.9,3.26 12.15,6.55 1.59,4.17 -4.11,-0.93 -7.99,-0.86 -8.61,0.15 -1.81,2.93 14.39,13.51 27.51,17.97 11.47,3.89 15.69,7.47 8.83,7.47 -1.76,0 -3.2,1.28 -3.2,2.84 0,2.3 -2,2.22 -10.63,-0.42 -6.75,-2.07 -9.67,-3.87 -8,-4.93l0.01 -0zm20.76 -127.55c0,-1.17 -5.03,-12.53 -11.17,-25.26 -10.46,-21.68 -12,-23.72 -24.27,-32.17 -7.21,-4.97 -16.33,-12.28 -20.28,-16.25 -9.64,-9.68 -13.44,-9.62 -11.85,0.18 2.51,15.46 11.65,30.65 29.38,48.78 20.25,20.72 38.19,32.34 38.19,24.72l-0 0zm186.8 -30.72c1.97,-5.12 -1.19,-23.14 -4.75,-27.12 -2.73,-3.05 -2.63,-3.58 0.85,-4.49 3.7,-0.97 3.8,-2.28 1.57,-21.38 -2.25,-19.27 -3,-21.34 -14.26,-39.22 -6.54,-10.39 -13.47,-22 -15.4,-25.81 -6.32,-12.48 -8.95,-7.99 -7.8,13.33 0.74,13.86 6.39,33.31 13.2,45.49 8.56,15.29 6.75,18.3 -3.48,5.81 -7.17,-8.75 -8.53,-9.61 -9.87,-6.2 -1.23,3.12 -1.58,2.68 -1.7,-2.12 -0.1,-3.88 -3.47,-10.02 -9.37,-17.06 -5.07,-6.05 -11.38,-14.12 -14.01,-17.93 -2.63,-3.81 -5.68,-6.93 -6.77,-6.93 -5.74,0 0.64,33.58 9.72,51.13 4.2,8.12 17.82,23.5 20.81,23.5 1.3,0 1.72,-3.87 1.06,-9.78 -1.33,-11.83 0.73,-10.09 6.05,5.13 4.03,11.49 16.18,26.53 26.99,33.39 5.34,3.39 5.96,3.41 7.17,0.25zm-75.92 -68.37c0,-1.72 -1.11,-12.87 -2.46,-24.78 -2.46,-21.61 -2.49,-21.71 -16.38,-42.61 -7.66,-11.52 -14.71,-20.47 -15.66,-19.88 -2.54,1.57 -2.13,26.51 0.66,39.64 3.19,15.05 10.89,29.88 21.46,41.35 9.06,9.83 12.39,11.52 12.39,6.28l0 0zm32.35 -38.99l0.71 -27.19 -11.38 -23.99c-6.26,-13.19 -12.65,-23.99 -14.18,-23.99 -1.93,0 -3.36,5.4 -4.61,17.42 -1.11,10.65 -2.85,17.77 -4.48,18.3 -3.27,1.08 -3.49,-16.59 -0.5,-39.66 1.48,-11.37 1.35,-16.92 -0.46,-20.26 -1.38,-2.53 -5.57,-12.72 -9.32,-22.64 -3.75,-9.92 -7.81,-18.38 -9.02,-18.78 -1.21,-0.4 -3.36,4.84 -4.78,11.65 -8.49,40.65 -5.16,71.4 10.18,93.88 7.87,11.53 11.25,12.63 11.25,3.67 0,-2.86 0.76,-5.21 1.71,-5.21 2.99,0 6.82,4.99 6.82,8.88 0,8.56 10.74,36.67 17.38,45.49 3.93,5.21 7.78,9.51 8.56,9.54 0.79,0.04 1.75,-12.17 2.13,-27.12l0 0zm37.99 25.06c0.07,-0.59 0.23,-14.51 0.37,-30.94 0.25,-29.12 0.09,-30.28 -6.55,-45.85 -3.75,-8.78 -8.35,-19.57 -10.22,-23.97 -5.15,-12.09 -8.22,-9.98 -11.24,7.74 -3.64,21.24 0.71,47.79 11.26,68.73 6.58,13.07 16.09,27.16 16.38,24.29l0 0zm-143.62 -7.8c-1.31,-6.57 -4.72,-33.04 -6.72,-52.06 -1.03,-9.78 -3.11,-14.5 -11.81,-26.66 -5.81,-8.12 -13.53,-19.81 -17.16,-25.96 -3.66,-6.22 -7.58,-10.58 -8.82,-9.82 -3,1.85 -0.61,36.32 3.67,53 5.81,22.64 30.23,65.26 38.3,66.84 3.06,0.6 3.52,-0.36 2.53,-5.33l0 0zm30.9 -23.66c0.15,-0.88 0.05,-14.07 -0.21,-29.32l-0.48 -27.72 -11.79 -22.92c-6.48,-12.61 -12.49,-22.92 -13.34,-22.92 -2.68,0 -4.11,28.94 -2.11,43.02 3.3,23.27 11.62,45.7 21.04,56.67 4.25,4.96 6.44,5.97 6.89,3.2zm200.77 -12.61c0.59,-0.98 1.77,-7.94 2.63,-15.47 0.86,-7.53 2.4,-16.62 3.43,-20.21 1.37,-4.78 0.48,-12.24 -3.32,-27.9 -2.86,-11.76 -6.29,-29.53 -7.63,-39.5 -1.34,-9.97 -2.85,-18.54 -3.36,-19.05 -1.89,-1.89 -4.77,3.43 -9.4,17.34 -7.26,21.81 -5.54,48.43 5.15,79.54 8.11,23.61 10.55,28.53 12.51,25.24l0 -0zm-123.59 -23.42c0.81,-0.81 1.52,-4.9 1.59,-9.11 0.07,-4.2 1.77,-16.26 3.77,-26.78l3.64 -19.14 -8.64 -25.49c-4.75,-14.02 -9.72,-25.85 -11.05,-26.29 -2.95,-0.98 -9.45,19.99 -10.72,34.61 -1.5,17.22 2.59,41.62 9.66,57.67 6.36,14.43 8.81,17.46 11.75,14.52l0 0zm40.56 -10.18c0.64,-1.67 3.67,-13.51 6.73,-26.31l5.57 -23.28 -4.2 -15.8c-2.31,-8.69 -4.83,-20.6 -5.61,-26.47 -2.25,-16.91 -3.14,-19.12 -6.34,-15.7 -5.54,5.93 -12.17,30.79 -13.28,49.82 -1.03,17.58 -0.54,20.93 5.79,39.98 6.77,20.36 9.01,23.86 11.35,17.76zm93.87 -24.18c0.55,-0.89 2.61,-7.85 4.58,-15.46 1.97,-7.61 6.96,-22 11.1,-31.97l7.52 -18.12 -0.18 -34.1c-0.1,-18.75 -1.03,-34.38 -2.08,-34.73 -3.78,-1.26 -19.68,26.88 -25.11,44.45 -6.5,21.02 -7.27,37.99 -3.19,69.7 2.55,19.75 4.44,24.95 7.35,20.24l0 0zm42.89 -6.38c1.91,-7.73 17.27,-45.93 23.36,-58.12 3.62,-7.23 5.16,-15.14 6.25,-31.99 0.79,-12.31 2.05,-27.18 2.78,-33.04 1.34,-10.66 1.34,-10.66 -3.06,-6.74 -7.13,6.34 -23.85,32.51 -29.21,45.71 -7.82,19.27 -10.4,36.67 -9.02,60.89 1.24,21.82 2.7,29.15 5.78,29.15 0.92,0 2.32,-2.64 3.12,-5.86zm-203.61 -43.72c2.68,-10.85 6.62,-24.43 8.78,-30.18 2.15,-5.75 3.51,-11.09 3.03,-11.87 -1.8,-2.91 -9.63,-34.28 -9.63,-38.58 0,-7.81 -4.96,-3.28 -12,10.96 -8.57,17.33 -12.21,34.2 -11.1,51.4 0.93,14.32 9.39,38.01 13.57,38.01 1.36,0 4.68,-8.88 7.35,-19.73l0 -0zm127.79 -1.06c2.8,-7.92 6.76,-17.75 8.8,-21.86 3.2,-6.43 3.52,-11.3 2.34,-35.18l-1.37 -27.72 -7.54 11.73c-10.61,16.52 -12.89,22.48 -15.07,39.45 -2.18,16.94 1.26,47.98 5.32,47.98 1.34,0 4.73,-6.48 7.53,-14.39l-0 0zm-41.3 5.33c1.43,-6.69 8.5,-24.9 15.38,-39.63 2.77,-5.91 2.91,-8.89 0.86,-17.75 -1.35,-5.86 -2.46,-16.26 -2.46,-23.11 0,-13 -1.39,-19.2 -4.31,-19.2 -3.42,0 -17.03,27.55 -20.15,40.8 -4.12,17.49 -4.09,32.54 0.11,51 3.68,16.19 8.09,19.47 10.56,7.89zm108.27 -40.45c1.64,-2.68 5.68,-9.66 8.98,-15.53 6.09,-10.83 23.13,-36.14 30.85,-45.85 3.1,-3.89 5.14,-12.18 7.54,-30.67 1.81,-13.94 2.79,-25.84 2.18,-26.46 -0.62,-0.61 -7.67,5.65 -15.68,13.92 -27.11,27.98 -40.92,58.43 -40.92,90.22 0,17.78 2.21,22.28 7.05,14.36zm50.52 -7.68c0,-1.94 7.55,-12.7 28.07,-40.01 4.48,-5.96 8.67,-14.12 9.3,-18.13 0.64,-4.01 2.75,-14.22 4.7,-22.69 1.94,-8.47 2.88,-16.05 2.09,-16.84 -1.81,-1.81 -18.02,12.7 -25.47,22.79 -9.35,12.66 -18.04,30.05 -21.81,43.62 -3.94,14.17 -3.7,31.11 0.46,32.48 1.46,0.48 2.66,-0.07 2.66,-1.22l0 0zm-128.99 -20.96c3.3,-5.69 9.55,-15.72 13.88,-22.29 7.71,-11.7 8.81,-15.96 11.77,-45.63 0.35,-3.52 1.71,-11.08 3.02,-16.81 4.15,-18.17 -1.28,-16.37 -16.22,5.38 -5.93,8.63 -13.9,23.85 -17.72,33.82 -6.4,16.69 -6.83,19.38 -5.51,34 2.02,22.4 3.54,24.02 10.79,11.53l0 0zm198.75 -63.42c14.08,-13.36 27.65,-25.39 30.17,-26.73 2.51,-1.34 4.59,-4.09 4.62,-6.1 0.03,-2.01 2.91,-10.34 6.4,-18.52 6.92,-16.22 7.38,-18.19 4.26,-18.19 -3.06,0 -28.47,17.39 -37.82,25.89 -12.1,10.99 -26.4,27.8 -28.77,33.82 -2.9,7.35 -8.09,27.26 -8.09,31.03 0,1.7 0.82,3.09 1.82,3.09 1,0 13.34,-10.93 27.42,-24.29l0 0zm-500.49 518.47c-0.01,-0.88 2.31,-1.6 5.16,-1.6 3.61,0 6.13,1.92 8.34,6.36l3.17 6.35 -8.33 -4.75c-4.58,-2.62 -8.34,-5.48 -8.35,-6.36l0 0zm-62.93 -11.76c-10.32,-9.7 -18.29,-18.11 -17.69,-18.7 0.59,-0.59 7.21,3.87 14.72,9.92 7.51,6.05 17.94,12.92 23.18,15.27 9.05,4.06 9.28,4.38 4.5,6.14 -4.97,1.84 -4.98,1.92 -1.01,6.47 3.99,4.57 3.99,4.58 -0.45,1.56 -2.46,-1.68 -12.93,-10.98 -23.25,-20.67l0 0zm95.96 16.56c-0.74,-1.19 0.86,-2.12 3.61,-2.1 3.96,0.02 4.3,0.44 1.73,2.1 -3.97,2.56 -3.74,2.56 -5.33,0zm58.65 -5.51c0,-3.77 4.59,-3.11 5.91,0.84 0.47,1.39 -0.67,2.53 -2.53,2.53 -1.86,0 -3.37,-1.52 -3.37,-3.37zm-23.72 -22.75c-2.44,-4.52 -1.65,-4.59 7.68,-0.69 5.11,2.14 7.18,4.32 6.95,7.33 -0.31,4.12 -0.55,4.15 -6.46,0.69 -3.38,-1.97 -7.05,-5.27 -8.16,-7.32zm-63.13 -2.89c0.71,-0.71 2.55,-0.79 4.09,-0.17 1.7,0.68 1.19,1.18 -1.29,1.29 -2.25,0.09 -3.51,-0.41 -2.8,-1.12l0 0zm646.95 -15.92c-12.03,-2.45 -28.62,-7.66 -37.31,-11.73 -8.61,-4.03 -16.52,-7.32 -17.59,-7.32 -1.07,0 -1.94,-0.78 -1.94,-1.74 0,-0.96 -3.44,-3.38 -7.64,-5.38 -11.12,-5.3 -34.74,-24.98 -47.23,-39.33 -20.76,-23.87 -40.5,-70.7 -46.32,-109.89 -9.01,-60.66 0.97,-129.39 25.58,-176.23 9.89,-18.81 30.98,-44.33 45.27,-54.78 27.31,-19.95 79.71,-42.04 109.76,-46.27 12.34,-1.74 9.47,1.37 -5.27,5.7 -17.1,5.02 -49.37,17.39 -60.3,23.11 -39.21,20.5 -71.3,49.01 -84.71,75.25 -13.24,25.91 -23.16,67.32 -26.31,109.92 -2.7,36.47 8.97,99.01 24.43,130.87 9.76,20.13 32.46,51.12 44.29,60.45 12.05,9.52 38.76,25.29 49.78,29.4 5.27,1.97 11.52,4.39 13.86,5.38 19.26,8.14 56.17,13.49 83.16,12.06l21.32 -1.13 -12.8 2.8c-19.47,4.26 -45.58,3.83 -70.03,-1.14zm314.1 -29.18c-10.93,-11.89 -11.97,-14.7 -14.77,-39.99 -4.38,-39.58 12.8,-88.11 41.51,-117.34 16.8,-17.1 22.47,-20.2 37.01,-20.2 7.47,0 12.05,1.4 17.36,5.32 9.65,7.11 10.61,8.98 10.64,20.73 0.03,8.92 -4.16,19.75 -12.6,32.59 -2.12,3.22 -6.08,15.78 -8.75,27.72 -1.31,5.86 -2.28,24.82 -2.15,42.14 0.22,29.97 -0.02,31.91 -5.12,40.6 -5.78,9.87 -15.59,18.21 -24.12,20.49 -2.94,0.78 -10.67,0.84 -17.18,0.13 -10.83,-1.19 -12.68,-2.22 -21.84,-12.19zm-838.43 0.41c-0.65,-0.66 -0.71,-3.04 -0.11,-5.31 1.03,-3.95 1.33,-3.97 7.23,-0.48 3.38,2 6.15,4.39 6.15,5.31 0,1.89 -11.45,2.31 -13.27,0.48zm-31.87 -3.44c-5.53,-1.66 -7.41,-3.06 -5.6,-4.17 2.13,-1.32 1.85,-3.2 -1.3,-8.7l-4.02 -7.02 7.24 6.81c3.98,3.75 11.56,8.76 16.83,11.15l9.6 4.34 -7.22 0.05c-3.97,0.02 -10.96,-1.07 -15.54,-2.45l0 0zm518.14 -15.82c-21.48,-10.85 -39.35,-25.75 -58.6,-48.86 -14.35,-17.23 -20.94,-29.3 -28.16,-51.61 -9.92,-30.62 -11.72,-44.67 -10.15,-79.23 2.76,-60.75 19.45,-106.93 49.62,-137.25 12.35,-12.42 19.18,-16.44 12.79,-7.54 -19.47,27.15 -32.5,51.9 -39.55,75.17 -12.76,42.12 -12.21,117.49 1.13,155.12 6.74,19.01 19.65,41.01 32.39,55.18 11.39,12.66 40.46,35.7 53.21,42.15 4.98,2.52 9.06,5.03 9.06,5.56 0,1.37 -8.54,-2.05 -21.73,-8.71l0 0zm230.7 -16.81c0,-0.98 1.52,-4.62 10.71,-25.66 7.47,-17.11 14.95,-22.56 20.98,-15.29 1.78,2.15 1.07,4.58 -2.93,10 -2.9,3.94 -6.04,7.7 -6.96,8.36 -0.92,0.66 -5.33,6.24 -9.79,12.4 -6.92,9.56 -12.01,13.88 -12.01,10.2zm-513.07 -46.57c3.4,-2.57 11.08,-8.82 17.06,-13.87 5.98,-5.06 16.88,-12.06 24.21,-15.57 7.33,-3.51 13.36,-7.53 13.39,-8.93 0.03,-1.41 1.04,-0.88 2.24,1.17 1.2,2.05 3.99,3.73 6.21,3.73 2.22,0 4.68,1.04 5.46,2.32 0.93,1.5 -0.71,2.12 -4.67,1.76 -14.58,-1.33 -28.19,4.67 -50.89,22.43 -8.21,6.43 -15.89,11.67 -17.06,11.66 -1.17,-0.02 0.65,-2.13 4.05,-4.7l-0 0zm-139.34 -3.45c-4.42,-3.4 -4.87,-4.77 -2.97,-9.02l2.25 -5.01 4.56 7.47c7.03,11.49 5.65,13.85 -3.84,6.56zm564.98 -46.82c0,-1.03 5.51,-2.28 12.26,-2.78 15.01,-1.11 33.15,-9.13 45.17,-19.99 13.71,-12.39 18.79,-24.06 21.29,-48.92 1.31,-13.03 1.73,-14.12 3.32,-8.58 2.29,7.96 -1.5,31.04 -7.32,44.64 -6.26,14.6 -20.61,27.4 -36.8,32.84 -13.44,4.51 -37.92,6.32 -37.92,2.8zm-14.16 -43.05c-28.07,-13.59 -35.51,-51.78 -14.44,-74.16l7.34 -7.8 -6.64 12.8c-5.75,11.09 -6.48,14.32 -5.49,24.22 1.55,15.53 8.86,26.05 23,33.09 32.03,15.96 68.11,-5.33 65.35,-38.57 -1.09,-13.15 2.31,-12.31 4.1,1.01 2.46,18.35 -9.21,37.09 -29.38,47.17 -16.19,8.09 -30.27,8.81 -43.84,2.24l0 0zm13.09 -17.52c-14.74,-8.29 -20.18,-27.25 -12.48,-43.49 4.2,-8.86 9.14,-12.36 22.44,-15.9 18.77,-5 35.89,5.32 38.78,23.36 0.75,4.7 0.49,10.79 -0.58,13.53 -1.92,4.89 -1.99,4.86 -4.46,-1.93 -1.94,-5.34 -4.41,-7.47 -10.92,-9.42 -7.45,-2.23 -9.06,-2.03 -14.19,1.79 -4.57,3.4 -5.93,6.35 -6.43,14.03 -0.54,8.1 0.16,10.28 4.21,13.11 2.66,1.87 7.75,3.47 11.3,3.57l6.45 0.17 -6.4 2.93c-9.29,4.26 -18.03,3.7 -27.72,-1.74l0 0zm-770.92 -125.12c8.71,-16.27 52.2,-67.03 76.82,-89.66 42.19,-38.78 105.68,-83.08 164.2,-114.56 23.4,-12.59 80.38,-35 104.49,-41.09 5.28,-1.33 14.41,-3.78 20.3,-5.44 14.07,-3.96 42.36,-9.31 43.49,-8.22 1.73,1.66 -1.12,2.72 -20.1,7.44 -77.72,19.35 -143.57,48.73 -218.56,97.49 -20.19,13.13 -66.31,46.85 -70.37,51.44 -0.59,0.66 -7.78,7.1 -15.99,14.3 -12.11,10.62 -34.2,30.92 -42.09,38.67 -2.3,2.26 -29.53,36.48 -36.43,45.79 -6.38,8.6 -9.39,10.6 -5.76,3.83l-0 0zm569.35 -101.86c5.36,-20.55 20.83,-55.43 31.93,-72.03 3.14,-4.69 5.44,-9.97 5.13,-11.73 -0.32,-1.76 2.26,-5.43 5.73,-8.16 4.89,-3.84 6.32,-4.23 6.32,-1.72 0,1.78 -0.88,3.78 -1.96,4.44 -3.18,1.97 -34.29,59.98 -34.29,63.94 0,0.82 2.16,0.9 4.8,0.17 4.14,-1.14 4,-0.81 -1,2.44 -5.56,3.61 -12.44,16.44 -15.61,29.08 -0.82,3.28 -1.99,5.47 -2.6,4.86 -0.61,-0.61 0.09,-5.69 1.56,-11.3l0 0zm-419.01 -92.21c1.34,-2.16 16.32,-6.91 17.64,-5.59 0.42,0.42 -3.36,2.2 -8.41,3.94 -5.05,1.74 -9.48,3.29 -9.84,3.44 -0.36,0.15 -0.09,-0.66 0.61,-1.78zm41.63 -11.68c0,-0.52 0.96,-1.53 2.13,-2.26 1.17,-0.72 2.13,-0.3 2.13,0.94 0,1.24 -0.96,2.26 -2.13,2.26 -1.17,0 -2.13,-0.42 -2.13,-0.94zm20.26 -5.46c3.52,-0.9 8.32,-1.67 10.66,-1.73l4.27 -0.1 -4.27 1.83c-2.35,1.01 -7.14,1.79 -10.66,1.73l-6.4 -0.1 6.4 -1.63zm-115.64 -3.42c0.71,-0.71 2.55,-0.79 4.09,-0.17 1.7,0.68 1.2,1.19 -1.29,1.29 -2.25,0.09 -3.51,-0.41 -2.8,-1.12l0 0zm10.09 -2.98c1.76,-1.14 4.64,-2.07 6.4,-2.07 2.84,0 2.84,0.23 0,2.07 -1.76,1.14 -4.64,2.07 -6.4,2.07 -2.85,0 -2.85,-0.23 0,-2.07zm11.01 -3.19c2.42,-2.42 66.5,-16.98 83.88,-19.06 4.69,-0.56 15.73,-1.98 24.52,-3.15 20.4,-2.72 73.99,-2.95 75.62,-0.32 1.6,2.59 -10.09,3.93 -46.83,5.38 -32.9,1.3 -81.75,7.38 -109.82,13.68 -18.05,4.05 -29.39,5.49 -27.37,3.47l0 0zm23.28 -40.34c1.57,-1.56 32.13,-5.76 57.4,-7.89 31.9,-2.69 124.51,-0.46 150.87,3.63 12.38,1.92 7.89,5.63 -5.33,4.41 -6.74,-0.62 -33.37,-2.21 -59.17,-3.52 -44.91,-2.28 -91.44,-0.85 -131.15,4.03 -11.3,1.39 -14.5,1.22 -12.62,-0.66l0 -0zm218.92 -21.36c-18.31,-7.81 -92.07,-19.73 -135.52,-21.89 -14.44,-0.72 -25.21,-1.95 -23.94,-2.73 5.23,-3.23 77.64,1.25 103.5,6.41 43.91,8.76 89.92,20.58 99,25.45 15.44,8.26 -21.12,2.12 -43.04,-7.23l0 0zm-379.02 1297.69c0,-1.32 -1.96,-2.4 -4.35,-2.4 -7.54,0 -13.72,-7.74 -13.48,-16.87 0.25,-9.36 13.14,-37.73 19.96,-43.89 3.87,-3.5 4.82,-3.65 6.5,-0.99 1.08,1.71 1.98,5.3 2,7.98 0.02,2.68 1.47,8.31 3.23,12.52 4.5,10.76 4.01,23.9 -1.19,32.43 -2.41,3.94 -3.91,7.64 -3.33,8.21 2.33,2.33 5.16,-2.01 8.72,-13.33 3.24,-10.29 3.41,-13.78 1.26,-25.13 -3.15,-16.59 -9.21,-37.7 -10.82,-37.7 -0.67,0 -4.62,4.56 -8.77,10.13 -18.6,24.95 -24.48,40.39 -20.87,54.75 1.33,5.29 3.61,10.61 5.06,11.81 4.13,3.43 16.09,5.27 16.09,2.48l0 0zm10.26 -163.65c2.79,-22.08 9.62,-51.04 20.06,-85.05 5.8,-18.89 9,-31.81 16.63,-67.17 2.85,-13.22 5.19,-65.68 3.36,-75.44 -1.25,-6.65 -2.28,-7.88 -6.17,-7.32 -4.37,0.62 -4.7,1.88 -5.09,19.86 -0.66,30.42 -7.51,63 -18.82,89.56 -13.87,32.6 -30.89,81.29 -30.89,88.4 0,2.26 -0.94,4.69 -2.1,5.41 -3.84,2.37 5.42,-39.45 13.69,-61.82 3.04,-8.21 7.97,-22.12 10.96,-30.92 2.99,-8.79 6.31,-17.91 7.38,-20.25 7.24,-15.87 17.02,-82.05 13.02,-88.16 -1.11,-1.7 -6.33,-3 -12.82,-3.2 -6.02,-0.18 -10.95,-1.05 -10.95,-1.93 -0,-0.88 -1.29,-1.6 -2.86,-1.6 -1.57,0 -6,6.48 -9.84,14.39 -8.3,17.1 -24.47,42.05 -42.51,65.57 -12.24,15.97 -27.65,42.71 -25.65,44.51 0.49,0.44 6.41,0.32 13.14,-0.26l12.25 -1.06 16.22 -32.26c8.92,-17.74 18.22,-35.54 20.67,-39.56 2.45,-4.01 8.08,-16.01 12.51,-26.65 9.39,-22.56 10.55,-21.1 2.64,3.32 -5.22,16.12 -27.76,63.03 -33.68,70.07 -1.48,1.76 -5.33,7.83 -8.56,13.48l-5.87 10.27 5.85 24.38c3.22,13.41 6.65,24.38 7.64,24.38 0.98,0 1.81,3.12 1.84,6.93 0.06,7.07 6.97,30.15 10.31,34.42 1.02,1.3 2.45,4.9 3.19,8 2.27,9.5 17.23,40.19 19.61,40.2 1.23,0 3.4,-9.22 4.82,-20.5l0 0zm-31.55 -92.83c1.98,-7.51 12.93,-35.7 23.48,-60.46 4.08,-9.57 10.89,-30.8 14.71,-45.85 3.5,-13.8 4.09,-14.86 4.24,-7.77 0.34,15.22 -9.94,46.22 -30.15,90.93 -3.98,8.8 -8.53,20.08 -10.12,25.07 -3.72,11.68 -5.37,10.21 -2.16,-1.92l0 -0zm-218.61 74.53c28.37,-9.76 70.54,-31.04 93.95,-47.4 7.67,-5.36 14.52,-9.75 15.22,-9.75 0.7,0 5.63,-3.6 10.96,-8 9.81,-8.1 18.37,-13.78 32.87,-21.79 6.26,-3.46 9.41,-7.53 14.48,-18.71 7.82,-17.24 15.33,-29.29 34.92,-55.99 19.95,-27.18 35.37,-52.91 35.37,-59 0,-8.4 -7.67,-6.22 -14.32,4.09 -7.78,12.03 -26.75,36.09 -40.02,50.72 -5.88,6.49 -15.5,17.42 -21.36,24.28 -5.86,6.86 -11.64,13.54 -12.83,14.85 -6.98,7.63 -23.23,31.14 -29.02,42.01 -3.72,6.97 -7.19,12.25 -7.71,11.73 -1.34,-1.34 12.88,-26.85 26.24,-47.11 11.51,-17.44 20.35,-28.35 45.81,-56.51 25.72,-28.44 40.41,-47 40.41,-51.04 0,-2.52 -2.11,-4.47 -5.85,-5.41 -4.7,-1.18 -6.46,-0.5 -9.03,3.5 -1.75,2.73 -18.63,20.32 -37.52,39.09 -46.19,45.89 -72.96,80.73 -98.29,127.9 -5.05,9.4 -9.2,16.3 -9.22,15.33 -0.07,-3.5 11.41,-30.39 16.3,-38.17 2.75,-4.37 4.99,-8.54 4.99,-9.27 0,-0.72 5.33,-9.32 11.84,-19.1 13.78,-20.71 33.68,-43.86 65.94,-76.7 28.38,-28.89 41.79,-45.11 40.36,-48.83 -1.01,-2.63 -9.73,-7.68 -13.26,-7.68 -1.74,0 -64.56,61.94 -85.43,84.24 -21.95,23.46 -43.7,59.68 -65.15,108.54 -8.96,20.4 -8.33,12.4 1,-12.78 9.45,-25.51 24.86,-57.24 36.67,-75.5 9.83,-15.21 34.35,-41.94 53.58,-58.41 20.14,-17.25 47.86,-45.63 49.44,-50.63 1.39,-4.38 -3.32,-10.38 -8.13,-10.38 -1.66,0 -7.04,4.77 -11.96,10.6 -4.92,5.83 -21.62,21.57 -37.12,34.98 -33.58,29.06 -41.91,37.61 -57.9,59.51 -19.59,26.81 -38.67,65.12 -53.2,106.86 -0.77,2.22 -1.93,3.51 -2.57,2.87 -1.72,-1.72 6.73,-28.78 16.36,-52.37 16.96,-41.53 36.43,-68.27 79.48,-109.14 30.31,-28.77 61.09,-59.92 61.09,-61.83 0,-0.82 -1.88,-3.19 -4.18,-5.27 -6.14,-5.56 -13.41,-2.73 -20.31,7.88 -3.25,5.01 -23.91,26.85 -45.9,48.55 -21.99,21.7 -45.45,46.93 -52.14,56.09 -14.24,19.49 -28.59,49.11 -35.07,72.37 -6.11,21.92 -12.34,45.48 -14.82,55.99l-2.01 8.53 -0.15 -7.46c-0.59,-30.36 23.51,-99.48 46.83,-134.29 13.73,-20.5 17.55,-24.62 57.38,-61.89 15.66,-14.66 34.16,-33.8 41.1,-42.52 11.19,-14.08 12.48,-16.69 11.44,-23.11 -0.64,-3.99 -2.34,-8.65 -3.76,-10.36 -2.16,-2.61 -3.54,-1.45 -8.52,7.12 -3.27,5.63 -6.87,12.24 -8,14.7 -1.14,2.46 -10.97,13.01 -21.86,23.46 -38.44,36.88 -60.11,59.66 -69.79,73.36 -5.38,7.62 -10.3,14.34 -10.93,14.93 -5.25,4.91 -27.02,54.69 -32.17,73.57 -7,25.64 -8.59,34.59 -9.7,54.38 -1.24,22.24 2.13,44.96 6.82,46.09 1.06,0.25 4.79,-0.53 8.31,-1.74l-0 0zm547.54 -137.34c0.86,-0.86 1.49,-4.03 1.42,-7.06l-0.14 -5.51 -2.06 5.15c-2.22,5.55 -1.76,9.95 0.77,7.42l0 -0zm-31.07 -6.07c-1.63,-10.05 4.14,-23.16 14.98,-33.99 4.23,-4.23 7.09,-8.29 6.36,-9.02 -1.84,-1.84 -17.42,14.24 -21.57,22.26 -3.94,7.63 -4.54,25.03 -0.94,27.25 1.78,1.1 2.1,-0.71 1.16,-6.5l0 0zm34.42 -20.36c0,-2.93 -0.48,-4.13 -1.08,-2.66 -0.59,1.47 -0.59,3.86 0,5.33 0.59,1.47 1.08,0.27 1.08,-2.66l0 -0zm-6.21 -26.47c3.37,-4.06 2.36,-6.07 -1.77,-3.51 -1.58,0.97 -2.47,2.95 -1.99,4.38 0.62,1.86 1.7,1.61 3.76,-0.87zm17.92 -9.07c0.78,-0.78 1.42,-2.73 1.42,-4.34 0,-2.27 -0.96,-2.4 -4.32,-0.6 -2.38,1.27 -3.76,3.23 -3.08,4.34 1.46,2.36 3.96,2.62 5.98,0.6l0 0zm-686.03 -32.7c-4.13,-14.82 -3.91,-18.33 1.67,-26.55 6.67,-9.83 7.74,-17.97 1.28,-9.7 -11.41,14.58 -13.98,30.52 -6.06,37.52 4.58,4.05 4.59,4.04 3.11,-1.27l0 0zm19.93 -1.99c2.83,-5.29 2.88,-27.19 0.06,-28.94 -2.86,-1.77 -3.73,1.54 -4.9,18.67 -0.99,14.41 0.7,18 4.84,10.27l0 0zm653.66 -6.98c2.35,-1.35 5.52,-3.95 7.06,-5.8 3.95,-4.75 12.65,-23.48 14.43,-31.08l1.5 -6.4 -4.22 5.33c-2.32,2.93 -6.72,10.84 -9.77,17.58 -7.84,17.31 -18.41,21.34 -25.69,9.79 -2.76,-4.38 -0.15,-13.89 5.03,-18.33 2.31,-1.98 4.21,-4.71 4.21,-6.08 0,-1.36 1.92,-2.98 4.26,-3.59 2.34,-0.61 4.27,-2.17 4.27,-3.45 0,-4.25 -3.64,-2.43 -12.62,6.28 -14.06,13.65 -15.7,22.86 -5.96,33.51 4.8,5.25 10.89,6.02 17.51,2.22l0 -0zm-605.99 -38.82c-0.75,-4.59 0.09,-9.84 2.27,-14.21 3.96,-7.93 2.49,-11.52 -2.13,-5.21 -5.54,7.57 -8.21,19.74 -5.15,23.43 4.39,5.29 6.27,3.78 5.01,-4.01l0 0zm24.52 -0.18c4.62,-5.87 8.36,-28.05 7.11,-42.12 -0.34,-3.89 -6.73,-5.37 -6.73,-1.55 0,1.2 -2.4,3.27 -5.33,4.61 -6.84,3.11 -6.94,6.88 -0.14,5.17 5.14,-1.29 5.18,-1.17 4.39,11.83 -0.44,7.22 -1.94,15.89 -3.34,19.27 -3.41,8.22 -1.34,9.65 4.05,2.81l0 0zm-77.36 3.05c0.77,-1.25 0.89,-2.79 0.27,-3.41 -1.53,-1.53 -5.69,1.16 -5.69,3.68 0,2.73 3.68,2.54 5.42,-0.27l0 0zm7.11 -5.99c-0.89,-2.68 -4,-3.3 -4,-0.8 0,0.88 1.08,1.96 2.4,2.4 1.32,0.44 2.04,-0.28 1.6,-1.6l0 0zm659.18 -4.41c0,-1.24 1.44,-2.26 3.2,-2.26 1.76,0 3.2,-0.96 3.2,-2.13 0,-3.11 -4.09,-2.61 -7.63,0.93 -1.92,1.91 -2.26,3.56 -0.91,4.39 1.18,0.73 2.15,0.31 2.15,-0.93zm24.52 -10.79c0.72,-1.17 0.3,-2.13 -0.94,-2.13 -1.24,0 -2.26,0.96 -2.26,2.13 0,1.17 0.42,2.13 0.94,2.13 0.52,0 1.53,-0.96 2.26,-2.13zm-625.15 -7.82c2.39,-2.39 1.58,-4.98 -1.55,-4.98 -1.63,0 -3.52,1.44 -4.2,3.2 -1.23,3.2 3.01,4.52 5.75,1.78l0 0zm742.49 -33.62c20.74,-6.9 50.84,-21.98 63.91,-32.01 16.32,-12.54 49.09,-48.86 47.05,-52.15 -0.74,-1.19 -5.9,-1.91 -11.47,-1.59 -9.25,0.53 -11.04,1.58 -20.68,12.18 -17.31,19.02 -27.62,28.73 -42.32,39.86 -14.97,11.33 -49.51,29.85 -51.66,27.7 -0.72,-0.72 5.27,-4.68 13.3,-8.8 21.04,-10.78 23.65,-12.82 53.25,-41.58 22.22,-21.59 26.34,-26.54 24.19,-29.13 -1.42,-1.71 -3.54,-3.11 -4.71,-3.11 -1.17,0 -13.29,10.86 -26.93,24.14 -13.64,13.28 -30.07,28.08 -36.52,32.89 -14.63,10.91 -33.07,20.28 -37.91,19.25 -2.53,-0.54 -1.03,-2.02 4.86,-4.8 15.41,-7.27 27.4,-16.5 51.18,-39.41 12.9,-12.43 25.85,-24.16 28.79,-26.06 3.58,-2.33 4.63,-4.18 3.2,-5.64 -4.01,-4.08 -13.78,0.11 -28.25,12.13 -26.7,22.18 -33.52,27.25 -48.54,36.12 -8.22,4.86 -20.52,10.75 -27.34,13.09 -6.82,2.34 -15.28,6.69 -18.8,9.66 -3.52,2.97 -7.3,5.4 -8.38,5.4 -4.26,0 -1.8,8.29 2.83,9.53 20.33,5.44 40.87,9.71 46.01,9.56 1.96,-0.06 13.19,-3.31 24.95,-7.22l0 0zm-24 -4.63c0.71,-0.71 2.55,-0.79 4.09,-0.17 1.7,0.68 1.19,1.18 -1.29,1.29 -2.25,0.09 -3.51,-0.41 -2.8,-1.12l0 0zm-561.4 -30.7c0,-1.17 -1.02,-2.13 -2.26,-2.13 -1.24,0 -1.66,0.96 -0.94,2.13 0.72,1.17 1.74,2.13 2.26,2.13 0.52,0 0.94,-0.96 0.94,-2.13zm577.62 -23.63c10.3,-4.57 47.09,-29.81 47.14,-32.34 0.02,-0.88 -3.43,-1.6 -7.68,-1.6 -5.44,0 -10.68,2.18 -17.78,7.39 -5.54,4.07 -14.4,9.25 -19.69,11.52 -8.81,3.78 -18.79,13.15 -18.79,17.64 0,2.92 6.68,1.89 16.79,-2.6zm-578.01 1.85c2.99,-2.99 3.3,-5.93 0.62,-5.93 -1.95,0 -5.17,6.43 -3.87,7.73 0.4,0.4 1.86,-0.41 3.25,-1.8zm5.55 -9.91c0.92,-1.49 1.09,-3.28 0.39,-3.99 -1.91,-1.91 -3.99,0.9 -2.96,3.99 0.72,2.17 1.23,2.17 2.57,-0.01l0 -0zm10.78 -15.01c0.71,-2.24 2.69,-4.61 4.41,-5.27 1.71,-0.66 3.12,-2.83 3.12,-4.82 0,-2.82 -1.4,-2.25 -6.34,2.6 -6.25,6.13 -8.34,11.55 -4.47,11.55 1.09,0 2.57,-1.83 3.28,-4.07zm579.2 -6.4c8.25,-4.43 9.29,-7.37 2.93,-8.28 -4.71,-0.67 -15.39,8.97 -12.15,10.98 1.08,0.66 5.22,-0.55 9.22,-2.69zm-595.13 -55.64c0,-1.17 -0.96,-2.13 -2.13,-2.13 -1.17,0 -2.13,0.96 -2.13,2.13 0,1.17 0.96,2.13 2.13,2.13 1.17,0 2.13,-0.96 2.13,-2.13zm2.13 -8.53c0,-3.98 -0.57,-4.55 -2.56,-2.56 -1.99,1.99 -1.99,3.13 0,5.12 1.99,1.99 2.56,1.42 2.56,-2.56zm-27.4 -8c2.63,-5.57 5.16,-10.85 5.61,-11.73 0.45,-0.88 -0.22,-1.6 -1.49,-1.6 -1.27,0 -2.31,0.96 -2.31,2.13 0,1.17 -1.92,4.05 -4.26,6.4 -3.66,3.65 -6.15,14.93 -3.3,14.93 0.53,0 3.12,-4.56 5.76,-10.13l0 -0zm27.4 -6.8c0,-3.59 -0.96,-6.52 -2.13,-6.52 -1.17,0 -2.13,2.34 -2.13,5.21 0,2.86 0.96,5.8 2.13,6.52 1.24,0.77 2.13,-1.4 2.13,-5.2l0 -0zm0 -17.06c0,-3.59 -0.84,-6.52 -1.87,-6.52 -1.03,0 -1.87,2.42 -1.87,5.37 0,2.95 0.84,5.89 1.87,6.52 1.03,0.63 1.87,-1.78 1.87,-5.37z"/>
 </g>
</svg>
