<?xml version="1.0" encoding="UTF-8"?>
<!DOCTYPE svg PUBLIC "-//W3C//DTD SVG 1.1//EN" "http://www.w3.org/Graphics/SVG/1.1/DTD/svg11.dtd">
<!-- Creator: CorelDRAW 2019 (64-Bit) -->
<svg xmlns="http://www.w3.org/2000/svg" xml:space="preserve" width="38.0097mm" height="49.4564mm" version="1.1" style="shape-rendering:geometricPrecision; text-rendering:geometricPrecision; image-rendering:optimizeQuality; fill-rule:evenodd; clip-rule:evenodd"
viewBox="0 0 6519.93 8483.41"
 xmlns:xlink="http://www.w3.org/1999/xlink"
 xmlns:xodm="http://www.corel.com/coreldraw/odm/2003">
 <defs>
  <style type="text/css">
   <![CDATA[
    .fil1 {fill:#FEFEFE;fill-rule:nonzero}
    .fil0 {fill:black;fill-rule:nonzero}
   ]]>
  </style>
 </defs>
 <g id="Vrstva_x0020_1">
  <metadata id="CorelCorpID_0Corel-Layer"/>
  <path class="fil0" d="M3309.94 3920.65c641.79,0 1225.09,262.39 1647.8,685.09 422.69,422.71 685.09,1006.01 685.09,1647.8l0 1987.83c0,133.68 -108.37,242.05 -242.05,242.05l-4181.67 0c-133.68,0 -242.05,-108.37 -242.05,-242.05l0 -1987.83c0,-641.81 262.38,-1225.09 685.09,-1647.8 422.71,-422.71 1006.01,-685.09 1647.8,-685.09z"/>
  <path class="fil0" d="M6197.43 3245.2c175.5,0 317.77,315.69 317.77,705.14 0,389.41 -142.27,705.12 -317.77,705.12 -137.16,0 -254.02,-192.87 -298.54,-463.07l-728.69 0c-133.68,0 -242.05,-108.37 -242.05,-242.05 0,-133.68 108.37,-242.05 242.05,-242.05l728.69 0c44.5,-270.22 161.38,-463.09 298.54,-463.09z"/>
  <path class="fil0" d="M5777.91 2978.66c-5.4,294.13 -326.99,530.41 -844.27,675.05 -432.74,120.98 -1024.86,195.84 -1673.68,195.84 -648.82,0 -1240.92,-74.84 -1673.67,-195.84 -521.68,-145.87 -844.39,-384.92 -844.39,-682.58 0,-133.68 108.37,-242.05 242.05,-242.05l4552.03 0c133.68,0 242.05,108.37 242.05,242.05l-0.12 7.53zm-4698.41 -2978.66l4360.92 0c133.68,0 242.05,108.37 242.05,242.05l0 360.96 595.41 0c133.68,0 242.05,108.37 242.05,242.05 0,133.68 -108.37,242.05 -242.05,242.05l-595.41 0 0 760.18c0,202.92 -82.85,387.25 -216.3,520.71 -133.42,133.45 -317.77,216.3 -520.69,216.3l-3371.02 0c-202.94,0 -387.25,-82.85 -520.71,-216.3 -133.45,-133.45 -216.3,-317.78 -216.3,-520.71l0 -760.18 -595.39 0c-133.68,0 -242.05,-108.37 -242.05,-242.05 0,-133.68 108.37,-242.05 242.05,-242.05l595.39 0 0 -360.96c0,-133.68 108.37,-242.05 242.05,-242.05zm4118.87 484.1l-3876.82 0 0 1363.19c0,69.28 28.54,132.49 74.48,178.43 45.94,45.94 109.15,74.48 178.43,74.48l3371.02 0c69.28,0 132.48,-28.54 178.41,-74.48 45.94,-45.94 74.48,-109.15 74.48,-178.43l0 -1363.19zm-1938.41 2881.35c561,0 1069.06,-57.55 1451.38,-152.27l-2902.75 0c382.31,94.74 890.36,152.27 1451.38,152.27z"/>
  <path class="fil1" d="M3213.45 4884.99c0,702.19 -269.75,1647.28 -512.95,1503.03 -142.9,-84.55 -95.94,-330.82 -32.9,-519.68 -23.45,26.14 -47.6,52.63 -73.11,78.82 -462.64,477.05 -426.43,1337.27 373.41,1481.86 -152.32,-91.24 -329.12,-264.69 -387.2,-590.79 0,0 239.22,293.22 540.16,69.47 300.96,-223.78 370.39,-864.25 370.39,-864.25 161.7,186.18 447.87,1031.98 98.94,1355.37 763.31,-225.75 992.75,-1175.89 -376.74,-2513.82z"/>
 </g>
</svg>
