<?xml version="1.0" encoding="UTF-8"?>
<!DOCTYPE svg PUBLIC "-//W3C//DTD SVG 1.1//EN" "http://www.w3.org/Graphics/SVG/1.1/DTD/svg11.dtd">
<!-- Creator: CorelDRAW 2020 (64-Bit) -->
<svg xmlns="http://www.w3.org/2000/svg" xml:space="preserve" width="50.9703mm" height="41.8304mm" version="1.1" style="shape-rendering:geometricPrecision; text-rendering:geometricPrecision; image-rendering:optimizeQuality; fill-rule:evenodd; clip-rule:evenodd"
viewBox="0 0 1027.98 843.64"
 xmlns:xlink="http://www.w3.org/1999/xlink"
 xmlns:xodm="http://www.corel.com/coreldraw/odm/2003">
 <defs>
  <style type="text/css">
   <![CDATA[
    .fil0 {fill:#2B2A29;fill-rule:nonzero}
   ]]>
  </style>
 </defs>
 <g id="Vrstva_x0020_1">
  <metadata id="CorelCorpID_0Corel-Layer"/>
  <path class="fil0" d="M58.3 463.71c-15.04,12.58 -37.44,10.59 -50.03,-4.45 -12.58,-15.04 -10.59,-37.44 4.45,-50.03l478.48 -400.96c13.52,-11.32 33,-10.84 45.94,0.3l220.15 184.48 0 -131.42 124.51 0 0 235.75 133.46 111.84c15.04,12.58 17.03,34.99 4.45,50.03 -12.58,15.04 -34.99,17.03 -50.03,4.45l-455.68 -381.86 -455.69 381.86zm796.87 -52.85l-318.04 -266.51c-12.94,-11.14 -32.41,-11.61 -45.94,-0.3l-316.82 265.49c-8.71,6.49 -14.36,16.86 -14.36,28.56l0 369.98c0,19.65 15.93,35.57 35.57,35.57l636.78 0c19.65,0 35.57,-15.93 35.57,-35.57l0 -369.98 -0.06 0c-0.01,-10.15 -4.33,-20.22 -12.72,-27.24zm-560.86 63.45l174.32 0 0 160.09 -174.32 0 0 -160.09zm265.03 0l174.32 0 0 160.09 0 160.09 -174.32 0 0 -160.09 0 -160.09z"/>
 </g>
</svg>
