<?xml version="1.0" encoding="UTF-8"?>
<!DOCTYPE svg PUBLIC "-//W3C//DTD SVG 1.1//EN" "http://www.w3.org/Graphics/SVG/1.1/DTD/svg11.dtd">
<!-- Creator: CorelDRAW 2019 (64-Bit) -->
<svg xmlns="http://www.w3.org/2000/svg" xml:space="preserve" width="55.0735mm" height="49.3332mm" version="1.1" style="shape-rendering:geometricPrecision; text-rendering:geometricPrecision; image-rendering:optimizeQuality; fill-rule:evenodd; clip-rule:evenodd"
viewBox="0 0 2157.07 1932.24"
 xmlns:xlink="http://www.w3.org/1999/xlink"
 xmlns:xodm="http://www.corel.com/coreldraw/odm/2003">
 <defs>
  <style type="text/css">
   <![CDATA[
    .fil0 {fill:black;fill-rule:nonzero}
   ]]>
  </style>
 </defs>
 <g id="Vrstva_x0020_1">
  <metadata id="CorelCorpID_0Corel-Layer"/>
  <path class="fil0" d="M401.87 0l701.8 0c110.57,0 211.06,45.19 283.86,118 72.81,72.81 118.01,173.3 118.01,283.87l0 1011.95 109.86 0c25.62,-126.52 137.44,-221.77 271.52,-221.77l55.27 0 0 80.83 159.61 0c30.52,0 55.27,24.75 55.27,55.27 0,30.52 -24.75,55.27 -55.27,55.27l-159.61 0 0 183.77 159.61 0c30.52,0 55.27,24.75 55.27,55.27 0,30.52 -24.75,55.27 -55.27,55.27l-159.61 0 0 68.4 -55.27 0c-134.08,0 -245.9,-95.25 -271.52,-221.77l-109.86 0 0 6.01c0,110.57 -45.19,211.06 -118.01,283.86 -72.81,72.81 -173.29,118.01 -283.86,118.01l-701.8 0c-110.57,0 -211.06,-45.19 -283.87,-118.01 -72.81,-72.81 -118,-173.29 -118,-283.86l0 -1128.5c0,-110.57 45.19,-211.06 118,-283.87 72.81,-72.81 173.3,-118 283.87,-118zm1318.55 1469.09c0,72.58 46.44,134.3 111.23,157.09l0 -3.72 0 -294.31 0 -16.15c-64.79,22.79 -111.23,84.51 -111.23,157.09zm-681.14 -40.5l-79.14 -35.98 84.3 -8.82c20.89,-2.19 33.57,-7.61 38.76,-16.6 2.91,-5.05 3.29,-10.9 1.11,-17.38 -4.22,-12.56 -17.13,-25.12 -54.61,-13.67l-115.87 35.4 -54.72 -24.88 86.9 -11.51c4.65,-0.61 8.79,-1.41 12.46,-2.38 4.43,-0.11 8.26,-0.93 11.39,-2.54 4.63,-2.38 7.81,-6.34 9.47,-11.76 0.09,-0.29 0.15,-0.59 0.23,-0.88 0.07,-0.23 0.12,-0.47 0.18,-0.7 0.02,-0.12 0.06,-0.24 0.09,-0.36 0.25,-1.07 0.4,-2.18 0.42,-3.32 0.01,-0.19 0.02,-0.37 0.02,-0.55 -0,-0.17 -0.01,-0.33 -0.02,-0.5 -0.02,-1.16 -0.16,-2.28 -0.42,-3.36 -0.02,-0.07 -0.04,-0.14 -0.05,-0.22 -0.07,-0.28 -0.13,-0.56 -0.22,-0.83 -0.07,-0.29 -0.13,-0.58 -0.23,-0.87 -1.65,-5.42 -4.84,-9.37 -9.47,-11.75 -3.14,-1.61 -6.96,-2.43 -11.39,-2.54 -3.68,-0.98 -7.82,-1.77 -12.46,-2.38l-86.9 -11.52 54.72 -24.87 115.87 35.39c37.49,11.46 50.39,-1.11 54.61,-13.67 2.18,-6.49 1.81,-12.33 -1.1,-17.38 -5.19,-8.98 -17.87,-14.41 -38.76,-16.6l-84.3 -8.81 79.14 -35.98c60.35,-27.44 73.46,-56.15 57.97,-82.98 -15.49,-26.83 -46.91,-29.83 -100.84,8.71l-70.73 50.54 34.52 -77.41c8.55,-19.18 10.19,-32.88 5,-41.86 -2.92,-5.05 -7.79,-8.3 -14.5,-9.65 -12.98,-2.62 -30.32,2.27 -39.14,40.46l-27.28 118.05 -48.9 34.95 33.48 -81.01c1.77,-4.28 3.13,-8.21 4.12,-11.85 2.17,-3.94 3.37,-7.71 3.54,-11.27 0.25,-5.2 -1.58,-9.93 -5.44,-14.07 -0.22,-0.23 -0.43,-0.43 -0.65,-0.64 -0.18,-0.19 -0.36,-0.36 -0.55,-0.54 -0.07,-0.07 -0.15,-0.15 -0.23,-0.22 -0.81,-0.76 -1.71,-1.45 -2.7,-2.04 -0.13,-0.09 -0.27,-0.17 -0.4,-0.25 -0.17,-0.1 -0.34,-0.18 -0.51,-0.28 -0.99,-0.54 -2.01,-0.97 -3.05,-1.28 -0.16,-0.05 -0.34,-0.09 -0.5,-0.14 -0.19,-0.05 -0.37,-0.11 -0.56,-0.15 -0.3,-0.08 -0.58,-0.17 -0.89,-0.24 -5.52,-1.28 -10.54,-0.51 -14.91,2.32 -2.96,1.9 -5.59,4.81 -7.9,8.59 -2.68,2.7 -5.44,5.89 -8.3,9.61l-53.42 69.5 5.82 -59.83 88.58 -82.64c28.67,-26.74 24.24,-44.2 15.48,-54.14 -4.52,-5.13 -9.78,-7.73 -15.6,-7.73 -10.38,0 -21.41,8.26 -33.75,25.27l-49.78 68.6 8.41 -86.53c6.41,-65.98 -11.9,-91.69 -42.88,-91.69 -30.97,0 -49.28,25.71 -42.88,91.69l8.41 86.53 -49.79 -68.6c-12.34,-17.01 -23.37,-25.27 -33.75,-25.27 -5.83,0 -11.08,2.6 -15.6,7.73 -8.76,9.93 -13.19,27.39 15.47,54.13l88.59 82.65 5.82 59.83 -53.42 -69.5c-2.86,-3.72 -5.62,-6.91 -8.29,-9.61 -2.31,-3.79 -4.94,-6.69 -7.9,-8.59 -4.37,-2.82 -9.39,-3.6 -14.91,-2.32 -0.3,0.07 -0.58,0.16 -0.88,0.24 -0.25,0.05 -0.5,0.14 -0.75,0.2 -0.1,0.04 -0.21,0.06 -0.31,0.09 -1.06,0.32 -2.1,0.76 -3.11,1.31 -0.15,0.08 -0.31,0.16 -0.45,0.24 -0.15,0.09 -0.3,0.18 -0.45,0.28 -0.98,0.6 -1.87,1.27 -2.68,2.03 -0.08,0.07 -0.16,0.16 -0.25,0.24 -0.18,0.17 -0.36,0.35 -0.54,0.53 -0.22,0.21 -0.43,0.41 -0.65,0.64 -3.87,4.14 -5.7,8.88 -5.45,14.07 0.18,3.56 1.37,7.34 3.55,11.28 0.99,3.63 2.35,7.56 4.12,11.84l33.48 81.01 -48.9 -34.95 -27.28 -118.04c-8.82,-38.2 -26.16,-43.09 -39.14,-40.47 -6.71,1.35 -11.58,4.6 -14.5,9.65 -5.19,8.98 -3.55,22.68 5.01,41.86l34.51 77.41 -70.73 -50.55c-53.93,-38.54 -85.36,-35.54 -100.84,-8.71 -15.49,26.83 -2.38,55.54 57.97,82.98l79.14 35.98 -84.3 8.82c-20.9,2.19 -33.57,7.61 -38.76,16.6 -2.91,5.04 -3.29,10.89 -1.1,17.38 4.22,12.56 17.13,25.12 54.61,13.67l115.87 -35.4 54.72 24.87 -86.9 11.52c-4.65,0.61 -8.79,1.41 -12.47,2.38 -4.43,0.11 -8.26,0.93 -11.39,2.54 -4.63,2.38 -7.81,6.33 -9.46,11.75 -0.09,0.3 -0.15,0.6 -0.23,0.89 -0.07,0.22 -0.12,0.45 -0.18,0.67 -0.03,0.13 -0.07,0.26 -0.09,0.39 -0.26,1.07 -0.4,2.19 -0.42,3.33 -0.01,0.18 -0.02,0.34 -0.02,0.52 0,0.18 0.01,0.35 0.02,0.52 0.02,1.15 0.16,2.26 0.42,3.34 0.02,0.1 0.05,0.2 0.07,0.3 0.07,0.26 0.12,0.52 0.2,0.77 0.07,0.29 0.14,0.58 0.23,0.87 1.65,5.42 4.83,9.38 9.46,11.75 3.13,1.61 6.96,2.43 11.39,2.54 3.68,0.97 7.82,1.77 12.47,2.38l86.9 11.51 -54.72 24.88 -115.86 -35.4c-37.49,-11.46 -50.4,1.11 -54.62,13.67 -2.18,6.48 -1.81,12.33 1.11,17.38 5.19,8.98 17.86,14.41 38.76,16.6l84.3 8.82 -79.14 35.98c-60.35,27.44 -73.46,56.15 -57.97,82.98 15.49,26.83 46.91,29.83 100.84,-8.71l70.73 -50.54 -34.51 77.41c-8.55,19.18 -10.19,32.88 -5.01,41.86 2.92,5.05 7.79,8.3 14.5,9.65 12.99,2.62 30.32,-2.28 39.14,-40.46l27.28 -118.05 48.9 -34.95 -33.48 81.01c-1.77,4.28 -3.13,8.2 -4.12,11.84 -2.18,3.94 -3.37,7.71 -3.55,11.28 -0.25,5.21 1.58,9.94 5.45,14.08 0.21,0.23 0.43,0.42 0.64,0.63 0.19,0.2 0.39,0.39 0.59,0.58 0.07,0.06 0.13,0.13 0.2,0.18 0.81,0.77 1.7,1.45 2.69,2.04 0.14,0.09 0.29,0.18 0.43,0.27 0.16,0.09 0.32,0.18 0.48,0.26 1,0.55 2.03,0.99 3.09,1.3 0.11,0.04 0.22,0.06 0.33,0.09 0.24,0.07 0.48,0.15 0.73,0.2 0.29,0.08 0.58,0.17 0.88,0.24 5.52,1.28 10.54,0.5 14.91,-2.32 2.96,-1.91 5.59,-4.81 7.9,-8.6 2.68,-2.7 5.44,-5.89 8.29,-9.6l53.42 -69.5 -5.82 59.82 -88.59 82.65c-28.66,26.74 -24.23,44.2 -15.47,54.13 4.52,5.13 9.78,7.73 15.6,7.73 10.38,0 21.41,-8.26 33.75,-25.27l49.79 -68.6 -8.41 86.52c-6.4,65.98 11.91,91.69 42.88,91.69 30.98,0 49.29,-25.71 42.88,-91.69l-8.41 -86.52 49.78 68.6c12.34,17 23.38,25.27 33.75,25.27 5.83,0 11.08,-2.6 15.6,-7.73 8.76,-9.94 13.19,-27.39 -15.48,-54.14l-88.58 -82.64 -5.82 -59.83 53.42 69.5c2.86,3.71 5.62,6.9 8.29,9.6 2.31,3.78 4.94,6.69 7.9,8.59 4.38,2.82 9.4,3.6 14.91,2.32 0.31,-0.07 0.59,-0.16 0.89,-0.24 0.22,-0.05 0.44,-0.12 0.65,-0.18 0.13,-0.04 0.27,-0.07 0.4,-0.11 1.06,-0.31 2.08,-0.75 3.08,-1.3 0.16,-0.08 0.33,-0.17 0.49,-0.26 0.14,-0.08 0.28,-0.17 0.43,-0.26 0.99,-0.6 1.88,-1.27 2.69,-2.04 0.07,-0.06 0.13,-0.13 0.2,-0.19 0.2,-0.19 0.4,-0.37 0.58,-0.58 0.22,-0.21 0.43,-0.41 0.65,-0.63 3.87,-4.14 5.69,-8.87 5.44,-14.07 -0.18,-3.56 -1.37,-7.33 -3.55,-11.28 -0.99,-3.63 -2.35,-7.56 -4.12,-11.84l-33.48 -81.01 48.9 34.94 27.28 118.05c8.83,38.19 26.16,43.08 39.14,40.46 6.71,-1.35 11.59,-4.6 14.5,-9.65 5.19,-8.98 3.54,-22.68 -5.01,-41.86l-34.52 -77.41 70.73 50.54c53.93,38.54 85.36,35.54 100.84,8.71 15.49,-26.83 2.38,-55.55 -57.97,-82.98zm-270.72 -143.25l4.69 -48.33 47.23 -41.6 -12.41 61.7 -39.51 28.23zm-31.58 0l-39.51 -28.23 -12.42 -61.7 47.23 41.6 4.7 48.33zm-15.79 27.35l-44.2 20.1 -59.63 -20.1 59.63 -20.1 44.2 20.1zm15.79 27.35l-4.7 48.33 -47.22 41.6 12.41 -61.69 39.51 -28.23zm31.58 -0l39.5 28.24 12.42 61.7 -47.23 -41.6 -4.69 -48.34zm15.78 -27.34l44.2 -20.1 59.64 20.1 -59.64 20.1 -44.2 -20.1zm-534.92 -752.93c-30.52,0 -55.27,-24.75 -55.27,-55.27 0,-30.52 24.75,-55.27 55.27,-55.27l326.04 0c30.52,0 55.27,24.75 55.27,55.27 0,30.52 -24.75,55.27 -55.27,55.27l-326.04 0zm0 313.96c-30.52,0 -55.27,-24.75 -55.27,-55.27 0,-30.52 24.75,-55.27 55.27,-55.27l326.04 0c30.52,0 55.27,24.75 55.27,55.27 0,30.52 -24.75,55.27 -55.27,55.27l-326.04 0zm-138.88 -234.24l1284.46 0 0 -237.6c0,-80.06 -32.79,-152.89 -85.62,-205.71 -52.83,-52.83 -125.65,-85.62 -205.71,-85.62l-701.8 0c-80.06,0 -152.89,32.79 -205.71,85.62 -52.82,52.83 -85.62,125.66 -85.62,205.71l0 237.6zm1284.46 55.27l-1284.46 0 0 835.63c0,80.06 32.79,152.88 85.62,205.71 52.83,52.83 125.66,85.62 205.71,85.62l701.8 0c80.06,0 152.89,-32.79 205.71,-85.62 52.83,-52.82 85.62,-125.65 85.62,-205.71l0 -61.28 0 -774.35z"/>
 </g>
</svg>
