<?xml version="1.0" encoding="UTF-8"?>
<!DOCTYPE svg PUBLIC "-//W3C//DTD SVG 1.1//EN" "http://www.w3.org/Graphics/SVG/1.1/DTD/svg11.dtd">
<!-- Creator: CorelDRAW 2020 (64-Bit) -->
<svg xmlns="http://www.w3.org/2000/svg" xml:space="preserve" width="52.6346mm" height="42.8626mm" version="1.1" style="shape-rendering:geometricPrecision; text-rendering:geometricPrecision; image-rendering:optimizeQuality; fill-rule:evenodd; clip-rule:evenodd"
viewBox="0 0 10429.86 8493.48"
 xmlns:xlink="http://www.w3.org/1999/xlink"
 xmlns:xodm="http://www.corel.com/coreldraw/odm/2003">
 <defs>
  <style type="text/css">
   <![CDATA[
    .fil0 {fill:#2B2A29}
   ]]>
  </style>
 </defs>
 <g id="Vrstva_x0020_1">
  <metadata id="CorelCorpID_0Corel-Layer"/>
  <path class="fil0" d="M4065.45 0l5074.68 0c709.42,0 1289.74,580.4 1289.74,1289.74l0 3252.28c0,709.42 -580.32,1289.74 -1289.74,1289.74l-253.08 0c0.48,-13.53 0.85,-26.97 0.85,-40.6 0,-604 -489.62,-1093.52 -1093.52,-1093.52 -604,0 -1093.52,489.52 -1093.52,1093.52 0,13.63 0.38,27.07 0.85,40.6l-3253.11 0 -3448.59 0 0 -280.33 1926.53 0c-398.75,-276.11 -436.72,-792.8 -98.58,-1705.13l947.76 -2556.55c246.51,-665.07 580.4,-1289.74 1289.74,-1289.74zm3728.92 6688.34c-495.55,0 -897.21,-401.74 -897.21,-897.19 0,-495.55 401.66,-897.19 897.21,-897.19 495.45,0 897.19,401.64 897.19,897.19 0,495.45 -401.74,897.19 -897.19,897.19zm0 -373.74c-289.07,0 -523.45,-234.38 -523.45,-523.45 0,-289.07 234.38,-523.45 523.45,-523.45 289.07,0 523.45,234.38 523.45,523.45 0,289.07 -234.38,523.45 -523.45,523.45zm-389.44 -4870.64l1373.84 0c185.06,0 336.45,151.39 336.45,336.43l0 813.09c0,185.04 -151.39,336.43 -336.45,336.43l-1373.84 0c-185.06,0 -336.45,-151.39 -336.45,-336.43l0 -813.09c0,-185.04 151.39,-336.43 336.45,-336.43zm-3135.36 -140.22l953.31 0c185.22,0 353.45,75.74 475.34,197.54 121.89,121.89 197.54,290.1 197.54,475.34l0 3280.35 -2298.97 0 0 -3280.35c0,-184.76 75.56,-352.9 197.44,-474.78l0.55 -0.55c121.91,-121.81 290.02,-197.54 474.78,-197.54zm953.31 280.33l-953.31 0c-107.98,0 -206.18,44.17 -277.32,115.21 -71.06,71.14 -115.13,169.34 -115.13,277.34l0 3000.02 1738.28 0 0 -3000.02c0,-107.8 -44.25,-205.9 -115.39,-277.14 -71.24,-71.14 -169.36,-115.41 -277.14,-115.41z"/>
  <path class="fil0" d="M2934.95 6990.49c851.14,92.24 1527.92,672.76 1647.92,1409.05 10.98,-61.92 16.68,-125.37 16.68,-189.99 0,-683.12 -636.85,-1236.91 -1422.44,-1236.91 -82.55,0 -163.46,6.12 -242.17,17.85z"/>
  <path class="fil0" d="M4555.92 8493.48c113.54,-600.17 598.11,-1091.68 1242.1,-1290.47 -21.44,-2.97 -43.02,-5.65 -64.7,-8.01 -670.24,99.97 -1180.3,607.72 -1180.3,1219.08 0,26.67 0.97,53.15 2.89,79.4z"/>
  <path class="fil0" d="M4269.11 6990.49c168.97,92.24 303.32,672.76 327.14,1409.05 2.18,-61.92 3.31,-125.37 3.31,-189.99 0,-683.12 -126.42,-1236.91 -282.37,-1236.91 -16.39,0 -32.44,6.12 -48.07,17.85z"/>
  <path class="fil0" d="M6513.37 7028.69c635.51,53.98 1140.82,393.68 1230.43,824.55 3.25,-14.39 5.89,-28.91 7.89,-43.55 0.79,14.41 1.51,28.93 2.1,43.55 1.53,-34.02 2.38,-68.8 2.48,-104.23 0.1,35.41 0.95,70.19 2.48,104.23 2.99,-72.49 8.34,-142.38 15.73,-208.78 136.53,-200.45 462.36,-321.01 876.62,-325.59 -16.01,-4.22 -32.1,-8.36 -48.29,-12.36 -372.81,-32.58 -679.18,51.04 -811.23,212.28 42.82,-263.43 120.38,-451.18 211.41,-490.1 -11.65,-6.9 -23.64,-10.46 -35.89,-10.46 -98.03,0 -180.48,229.78 -204.06,541.08 -4.32,7.25 -8.32,14.66 -11.99,22.17 -21.28,-322.48 -105.26,-563.26 -205.63,-563.26 -12.25,0 -24.23,3.57 -35.89,10.46 98.31,42.03 180.92,257.64 221,554.64 -106.19,-323.41 -529.81,-565.1 -1036.38,-565.1 -61.63,0 -122.02,3.59 -180.8,10.46zm1242.85 706.78c-0.06,-20.29 -0.34,-40.38 -0.87,-60.22l1.9 -3.37c-0.61,22.15 -0.97,44.59 -0.99,67.27l0 -0.93 -0.02 -0.91 0 -0.93 -0.02 -0.91z"/>
 </g>
</svg>
