<?xml version="1.0" encoding="UTF-8"?>
<!DOCTYPE svg PUBLIC "-//W3C//DTD SVG 1.1//EN" "http://www.w3.org/Graphics/SVG/1.1/DTD/svg11.dtd">
<!-- Creator: CorelDRAW 2019 (64-Bit) -->
<svg xmlns="http://www.w3.org/2000/svg" xml:space="preserve" width="41.7664mm" height="48.8937mm" version="1.1" style="shape-rendering:geometricPrecision; text-rendering:geometricPrecision; image-rendering:optimizeQuality; fill-rule:evenodd; clip-rule:evenodd"
viewBox="0 0 2649.21 3101.29"
 xmlns:xlink="http://www.w3.org/1999/xlink"
 xmlns:xodm="http://www.corel.com/coreldraw/odm/2003">
 <defs>
  <style type="text/css">
   <![CDATA[
    .fil0 {fill:black}
   ]]>
  </style>
 </defs>
 <g id="Vrstva_x0020_1">
  <metadata id="CorelCorpID_0Corel-Layer"/>
  <path class="fil0" d="M550.76 2714.18l1626.88 0c49.43,0 89.51,40.07 89.51,89.51l0 208.11c0,49.43 -40.07,89.51 -89.51,89.51l-1626.88 0c-49.43,0 -89.51,-40.07 -89.51,-89.51l0 -208.11c0,-49.43 40.07,-89.51 89.51,-89.51zm824.89 -2257.54l0.24 0c3.68,0.05 7.36,0.12 11.03,0.21l0.9 0.03c3.23,0.08 6.45,0.19 9.67,0.31l3.27 0.13c2.86,0.11 5.72,0.23 8.58,0.38l4.15 0.22 4.61 0.27 9.03 0.58 1.48 0.1c222.87,15.9 424.02,113.51 573.38,262.87 20.77,20.77 40.54,42.55 59.23,65.24 0.92,1.08 1.82,2.18 2.69,3.3 22.21,27.23 42.88,55.78 61.86,85.49l232.23 0c49.43,0 89.51,40.07 89.51,89.51 0,49.43 -40.07,89.51 -89.51,89.51l-144.05 0c8.61,23.84 16.24,48.13 22.84,72.83l323.1 0 0 0.18c6.57,0.01 13.25,0.74 19.93,2.27 48.08,11 78.13,58.91 67.13,106.99l-307.34 1342.77c-6.68,42.43 -43.16,74.95 -87.34,75.47 -16.03,24.14 -43.46,40.06 -74.61,40.06l-1626.88 0c-49.43,0 -89.51,-40.07 -89.51,-89.51l0 -870.4 -216.4 -727.06 0.12 -0.04c-2.76,-9.26 -4.05,-19.13 -3.62,-29.33 2.12,-49.23 43.77,-87.43 93,-85.31l250.55 11.01c39.29,-66.92 86.95,-128.41 141.51,-182.98 149.38,-149.38 350.57,-247.01 573.5,-262.87l1.16 -0.08 9.37 -0.61 4.39 -0.25 4.23 -0.23c2.85,-0.15 5.71,-0.27 8.57,-0.38l3.27 -0.13 9.65 -0.31 0.93 -0.03c3.67,-0.09 7.33,-0.16 11.01,-0.21l0.24 0c3.81,-0.05 7.62,-0.08 11.45,-0.08 3.82,0 7.64,0.03 11.45,0.08zm-1330.53 -305.78c-24.62,0.29 -44.82,-19.43 -45.1,-44.05 -0.29,-24.62 19.43,-44.82 44.05,-45.1 28.75,-0.37 56,3.85 81.44,11.88 67.83,21.42 124.33,69.56 163.81,129.85 38.55,58.9 61.1,130.26 62,199.79 0.42,32.91 -3.87,65.28 -13.45,95.61 -7.43,23.56 -32.56,36.62 -56.12,29.2 -23.56,-7.43 -36.62,-32.56 -29.2,-56.12 6.84,-21.65 9.91,-44.54 9.61,-67.64 -0.67,-52.33 -18.01,-106.6 -47.66,-151.9 -28.74,-43.9 -68.81,-78.61 -115.9,-93.48 -17.16,-5.42 -35.08,-8.27 -53.46,-8.04zm2220.49 1155.76c0.34,5.75 0.62,11.52 0.84,17.3l0.03 0.7 0 0.12 0.03 0.82 0.03 0.82 0.03 0.82 0.03 0.82 0.03 0.83 0.03 0.72 0 0.11 0.03 0.82 0.03 0.82 0.03 0.83 0.03 0.82 0.03 0.82 0.03 0.73 0 0.1 0.02 0.82 0.03 0.82 0.02 0.83 0.02 0.82 0.02 0.83 0.02 0.74 0 0.08 0.02 0.83 0.02 0.82 0.01 0.83 0.02 0.82 0.01 0.83 0.03 1.66 0.01 0.83 0.01 0.82 0.01 0.83 0.01 0.83 0.01 0.78 0 0.04 0.01 0.83 0.01 0.83 0.01 0.82 0.01 0.83 0.01 0.83 0.01 0.81 0 0.03 0 0.83 0.01 0.82 0 0.83 0.01 0.83 0 0.83 0 0.83 0 736.27 180.63 -789.17 -182.18 0zm-1969.64 -1217.44c-24.62,0.29 -44.82,-19.43 -45.1,-44.05 -0.29,-24.62 19.43,-44.82 44.05,-45.1 28.75,-0.37 56,3.85 81.44,11.88 67.83,21.42 124.33,69.55 163.8,129.85 38.55,58.9 61.11,130.26 62,199.8 0.42,32.91 -3.88,65.28 -13.45,95.61 -24.09,76.27 -74.5,130.37 -117.48,176.49 -19.78,21.22 -37.77,40.52 -47.62,56.41 -11.53,18.6 -6.19,38.1 42.64,68.38 20.95,12.93 27.45,40.41 14.51,61.36 -12.93,20.95 -40.41,27.45 -61.36,14.51 -109.2,-67.72 -112,-126.05 -71.66,-191.1 14.93,-24.08 35.5,-46.14 58.11,-70.41 36.56,-39.23 79.45,-85.25 97.55,-142.56 6.83,-21.65 9.91,-44.53 9.61,-67.63 -0.67,-52.33 -18.01,-106.61 -47.67,-151.91 -28.73,-43.91 -68.81,-78.61 -115.9,-93.48 -17.16,-5.42 -35.08,-8.27 -53.46,-8.04zm670.31 666.49l795.87 0c-107,-70.93 -233.67,-114.24 -369.62,-119.55l-0.93 -0.03 -7.91 -0.26 -2.07 -0.05 -7.82 -0.15 -0.96 -0.01c-2.87,-0.04 -5.74,-0.05 -8.62,-0.05l-8.62 0.05 -0.96 0.01 -7.82 0.15 -2.07 0.05 -7.91 0.26 -0.93 0.03c-135.95,5.3 -262.62,48.61 -369.62,119.55zm983.06 179.01l-1170.26 0c-83.68,114.72 -134.58,254.64 -138.55,405.67l-0.01 0.44 -0.01 0.11 -0.01 0.77 -0.16 8.19 -0.01 0.33 -0.01 1.27 -0.04 8.04 0 363.32 0 793.51 1447.87 0 0 -1156.82 -0.03 -6.06 -0.01 -1.01 -0.01 -0.34 -0.01 -0.67 -0.11 -6.73 -0.01 -0.32 -0.15 -6.03 -0.03 -1 0 -0.03 -0.03 -0.98 -0.22 -6.01 -0.02 -0.38c-1.33,-32.72 -4.87,-64.89 -10.46,-96.39l-0.05 -0.29 -0.06 -0.29 -0.05 -0.29 -0.05 -0.29 -0.05 -0.3c-19.66,-109.49 -64.19,-210.67 -127.49,-297.43zm-1468.74 239.08c6.74,-31.94 15.17,-63.26 25.21,-93.88l-53.86 -2.37 28.64 96.24z"/>
 </g>
</svg>
