<?xml version="1.0" encoding="UTF-8"?>
<!DOCTYPE svg PUBLIC "-//W3C//DTD SVG 1.1//EN" "http://www.w3.org/Graphics/SVG/1.1/DTD/svg11.dtd">
<!-- Creator: CorelDRAW 2019 (64-Bit) -->
<svg xmlns="http://www.w3.org/2000/svg" xml:space="preserve" width="33.6106mm" height="48.6895mm" version="1.1" style="shape-rendering:geometricPrecision; text-rendering:geometricPrecision; image-rendering:optimizeQuality; fill-rule:evenodd; clip-rule:evenodd"
viewBox="0 0 639.81 926.85"
 xmlns:xlink="http://www.w3.org/1999/xlink"
 xmlns:xodm="http://www.corel.com/coreldraw/odm/2003">
 <defs>
  <style type="text/css">
   <![CDATA[
    .fil0 {fill:black;fill-rule:nonzero}
   ]]>
  </style>
 </defs>
 <g id="Vrstva_x0020_1">
  <metadata id="CorelCorpID_0Corel-Layer"/>
  <path class="fil0" d="M638.71 648.48l-63.38 235.4c-5.5,20.43 -10.22,42.97 -36.84,42.97l-136.69 0c-26.93,0 -31.52,-23.21 -37.12,-43.99l-60.17 -223.53c-4.21,-15.63 -7.99,-28.93 5.63,-42.59 5.99,-6.03 14.22,-9.78 23.33,-9.78l264.15 0c10.76,0 18.5,-0.56 27.83,5.82 11.39,7.8 16.86,22.24 13.25,35.71zm-183.12 -267.12c6.37,33.23 25.49,49.83 25.49,66.46 0,16.61 -6.38,33.23 -25.49,33.23 -19.12,0 -25.5,-16.63 -25.5,-33.23 0,-16.63 19.15,-33.23 25.5,-66.46zm-150.52 -290.11c26.98,5.49 49.69,22.79 62.52,46.23 37.83,8.6 71.69,27.86 98.22,54.4 36.67,36.65 59.42,87.24 59.42,142.93l0 37.92 -98.58 0 0 -37.92c0,-28.49 -11.7,-54.39 -30.5,-73.23 -10.25,-10.25 -22.6,-18.38 -36.27,-23.64 -16.91,22.03 -43.49,36.24 -73.39,36.24 -32.91,0 -61.83,-17.23 -78.18,-43.14l-79.7 0 0 119.78c0,17.45 -14.28,31.73 -31.73,31.73l-65.14 0c-17.45,0 -31.73,-14.28 -31.73,-31.73l0 -319.1c0,-17.45 14.28,-31.73 31.73,-31.73l65.14 0c17.45,0 31.73,14.28 31.73,31.73l0 100.75 79.7 0c13.75,-21.74 36.31,-37.38 62.69,-41.83l0 -26.18c-24.11,-0.71 -44.95,-2.88 -58.73,-5.89 -3.96,7.75 -11.99,13.06 -21.29,13.06 -13.16,0 -23.84,-10.72 -23.84,-23.86 0,-13.23 10.68,-23.9 23.84,-23.9 10.89,0 20.13,7.33 22.96,17.31 17.03,-3.48 43.9,-5.74 74.06,-5.74 30.24,0 57.06,2.26 74.07,5.74 2.88,-9.97 12.07,-17.31 22.99,-17.31 13.18,0 23.86,10.67 23.86,23.9 0,13.13 -10.68,23.86 -23.86,23.86 -9.28,0 -17.31,-5.31 -21.26,-13.06 -13.74,3 -34.63,5.18 -58.73,5.89l0 26.79zm196.13 349.95c6.37,33.26 25.47,49.83 25.47,66.48 0,16.61 -6.36,33.23 -25.47,33.23 -19.13,0 -25.49,-16.62 -25.49,-33.23 0,-16.65 19.1,-33.23 25.49,-66.48zm-39.88 53.43c6.35,33.22 25.49,49.85 25.49,66.45 0,16.63 -6.36,33.25 -25.49,33.25 -19.15,0 -25.52,-16.62 -25.52,-33.25 0,-16.6 19.15,-33.23 25.52,-66.45zm118.54 166.04l-219.42 0 20.37 75.67 178.68 0 20.37 -75.67z"/>
 </g>
</svg>
