<?xml version="1.0" encoding="UTF-8"?>
<!DOCTYPE svg PUBLIC "-//W3C//DTD SVG 1.1//EN" "http://www.w3.org/Graphics/SVG/1.1/DTD/svg11.dtd">
<!-- Creator: CorelDRAW 2020 (64-Bit) -->
<svg xmlns="http://www.w3.org/2000/svg" xml:space="preserve" width="36.8922mm" height="32.0624mm" version="1.1" style="shape-rendering:geometricPrecision; text-rendering:geometricPrecision; image-rendering:optimizeQuality; fill-rule:evenodd; clip-rule:evenodd"
viewBox="0 0 714.96 621.36"
 xmlns:xlink="http://www.w3.org/1999/xlink"
 xmlns:xodm="http://www.corel.com/coreldraw/odm/2003">
 <defs>
  <style type="text/css">
   <![CDATA[
    .fil1 {fill:#2B2A29}
    .fil0 {fill:#2B2A29;fill-rule:nonzero}
   ]]>
  </style>
 </defs>
 <g id="Vrstva_x0020_1">
  <metadata id="CorelCorpID_0Corel-Layer"/>
  <path class="fil0" d="M357.09 0.02l-0.11 0.01 -0.03 0c-77.46,6.16 -156.38,54.57 -220.73,127.93 -63.6,72.52 -113.07,169.54 -132.8,274.22l0.37 0.07c-2.32,1.84 -3.8,4.68 -3.8,7.87 0,5.55 4.5,10.04 10.04,10.04l694.87 0c5.55,0 10.04,-4.5 10.04,-10.04 0,-2.98 -1.3,-5.66 -3.37,-7.5 -0.01,-0.15 -0.03,-0.29 -0.06,-0.44 -19.73,-104.69 -69.2,-201.7 -132.8,-274.22 -64.38,-73.41 -143.35,-121.83 -220.86,-127.94 -0.27,-0.02 -0.53,-0.02 -0.78,0zm343.83 400.06l-20.25 0c-32.09,-238.85 -201.14,-345 -281.14,-382.41 60.79,16.93 120.79,58.89 171.66,116.89 61.69,70.33 109.84,164.15 129.72,265.52zm-385.48 -382.42c-79.99,37.41 -249.06,143.57 -281.15,382.42l-20.25 0c19.89,-101.38 68.04,-195.19 129.73,-265.52 50.87,-58 110.88,-99.97 171.67,-116.89zm-182.08 382.42c18.03,-15.71 111.06,-101.77 214.9,-289.31l18.45 0c2.74,4.94 5.47,9.82 8.18,14.62l-29.21 0 0 14.6 29.64 0 0 -13.85c100.32,176.88 188.75,258.65 206.28,273.94l-206.28 0 0 -11.48 -29.64 0 0 11.48 -212.33 0zm222.91 -303.94l1.22 -2.23 1.22 2.23 -2.43 0zm19.06 73.13l-29.64 0 0 -14.65 29.64 0 0 14.65zm0 29.25l-29.64 0 0 -14.65 29.64 0 0 14.65zm0 29.23l-29.64 0 0 -14.63 29.64 0 0 14.63zm0 29.25l-29.64 0 0 -14.63 29.64 0 0 14.63zm0 29.25l-29.64 0 0 -14.63 29.64 0 0 14.63zm0 29.25l-29.64 0 0 -14.65 29.64 0 0 14.65zm0 29.25l-29.64 0 0 -14.63 29.64 0 0 14.63zm0 29.23l-29.64 0 0 -14.63 29.64 0 0 14.63z"/>
  <path class="fil1" d="M280.28 473.31c-43.06,6.47 -77.74,45.46 -86.61,95.95 0.25,3.04 0.39,6.13 0.39,9.25 0,1.97 -0.05,3.93 -0.16,5.87 -0.36,-2.67 -0.8,-5.32 -1.31,-7.93l-0.13 0.99c-0.15,-1.18 -0.28,-2.37 -0.4,-3.56l-0.2 -0.89 -0.12 4.45c-0.05,-1.81 -0.08,-3.65 -0.11,-5.49 -8.78,-38.64 -32.88,-69.64 -63.93,-82.93 1.14,-0.22 2.29,-0.42 3.45,-0.59 29.44,6.09 53.08,32.65 60.47,67.1 0.66,-46.8 7.12,-83.54 14.99,-83.54 0.87,0 1.73,0.45 2.56,1.32 -7.01,5.31 -12.9,32.5 -15.77,69.97 7.6,-40.81 37.83,-71.29 73.96,-71.29 4.4,0 8.71,0.45 12.9,1.32z"/>
  <path class="fil1" d="M427.15 476.54c62.15,5.28 111.57,38.5 120.34,80.64 0.32,-1.41 0.58,-2.83 0.77,-4.26 0.08,1.41 0.15,2.83 0.21,4.26 0.15,-3.33 0.23,-6.73 0.24,-10.19 0.01,3.46 0.09,6.86 0.24,10.19 0.29,-7.09 0.82,-13.92 1.54,-20.42 13.35,-19.6 45.22,-31.4 85.73,-31.84 -1.57,-0.41 -3.14,-0.82 -4.72,-1.21 -36.46,-3.19 -66.42,4.99 -79.34,20.76 4.19,-25.76 11.77,-44.13 20.68,-47.93 -1.14,-0.67 -2.31,-1.02 -3.51,-1.02 -9.59,0 -17.65,22.47 -19.96,52.92 -0.42,0.71 -0.81,1.43 -1.17,2.17 -2.08,-31.54 -10.29,-55.09 -20.11,-55.09 -1.2,0 -2.37,0.35 -3.51,1.02 9.61,4.11 17.69,25.2 21.61,54.24 -10.39,-31.63 -51.82,-55.27 -101.36,-55.27 -6.03,0 -11.93,0.35 -17.68,1.02zm121.55 69.12c-0.01,-1.98 -0.03,-3.95 -0.09,-5.89l0.19 -0.33c-0.06,2.17 -0.09,4.36 -0.1,6.58l0 -0.09 -0 -0.09 0 -0.09 -0 -0.09z"/>
  <path class="fil1" d="M257.19 535.35c59,5.01 106.52,35.21 118.69,74.31 -0.35,2.36 -0.53,4.75 -0.53,7.16 0,1.53 0.07,3.04 0.21,4.54 0.5,-2.07 1.1,-4.12 1.79,-6.15l0.17 0.77c0.21,-0.91 0.39,-1.83 0.54,-2.76l0.27 -0.7c0.06,1.15 0.11,2.3 0.16,3.46 0.06,-1.41 0.11,-2.83 0.15,-4.26 12.04,-29.92 45.06,-53.92 87.61,-64.22 -1.57,-0.17 -3.14,-0.32 -4.72,-0.46 -40.34,4.72 -72.73,25.28 -82.87,51.96 -0.9,-36.24 -9.75,-64.69 -20.54,-64.69 -1.2,0 -2.37,0.35 -3.51,1.02 9.61,4.11 17.68,25.18 21.61,54.2 -10.41,-31.6 -51.83,-55.22 -101.35,-55.22 -6.03,0 -11.93,0.35 -17.68,1.02z"/>
 </g>
</svg>
