<?xml version="1.0" encoding="UTF-8"?>
<!DOCTYPE svg PUBLIC "-//W3C//DTD SVG 1.1//EN" "http://www.w3.org/Graphics/SVG/1.1/DTD/svg11.dtd">
<!-- Creator: CorelDRAW 2019 (64-Bit) -->
<svg xmlns="http://www.w3.org/2000/svg" xml:space="preserve" width="169.858mm" height="132.694mm" version="1.1" style="shape-rendering:geometricPrecision; text-rendering:geometricPrecision; image-rendering:optimizeQuality; fill-rule:evenodd; clip-rule:evenodd"
viewBox="0 0 16782.89 13110.87"
 xmlns:xlink="http://www.w3.org/1999/xlink"
 xmlns:xodm="http://www.corel.com/coreldraw/odm/2003">
 <defs>
  <style type="text/css">
   <![CDATA[
    .fil2 {fill:black}
    .fil1 {fill:black;fill-rule:nonzero}
    .fil0 {fill:black;fill-rule:nonzero}
   ]]>
  </style>
 </defs>
 <g id="Vrstva_x0020_1">
  <metadata id="CorelCorpID_0Corel-Layer"/>
  <g id="_3033175597072">
   <path class="fil0" d="M3317.34 2852.42c0,637.7 -527.33,1154.55 -1177.83,1154.55 -650.39,0 -1177.72,-516.85 -1177.72,-1154.55 0,-637.66 527.33,-1154.54 1177.72,-1154.54 650.5,0 1177.83,516.88 1177.83,1154.54z"/>
   <g>
    <path class="fil0" d="M15197.69 2974.77c0,637.66 -527.3,1154.54 -1177.83,1154.54 -650.35,0 -1177.69,-516.88 -1177.69,-1154.54 0,-637.66 527.34,-1154.55 1177.69,-1154.55 650.53,0 1177.83,516.89 1177.83,1154.55z"/>
    <g>
     <path class="fil0" d="M4279.13 4712.64c0,-311.27 -324.02,-563.63 -723.75,-563.63l-2831.6 0c-399.77,0 -723.79,252.36 -723.79,563.63 0,20.49 1.64,40.78 4.32,60.58 -1.53,13.87 -4.32,27.4 -4.32,41.62l0 3733.19c0,210.08 175.57,380.5 392.13,380.5 216.6,0 392.17,-170.42 392.17,-380.5l0 -3271.82 41.02 0 167.04 1014.88 0 6139.84c0,319.15 228.93,577.85 511.45,577.85 282.41,0 511.34,-258.7 511.34,-577.85l0 -3621.57c40.93,4.47 82.33,7.04 124.37,7.04 42.14,0 83.52,-2.58 124.44,-7.04l0 3621.57c0,319.15 228.9,577.85 511.42,577.85 282.47,0 511.34,-258.7 511.34,-577.85l0 -6139.84 167.07 -1014.88 41.06 0 0 3259.38c0,214.47 175.61,388.27 392.13,388.27 216.63,0 392.17,-173.8 392.17,-388.27l0 -3809c0,-1.85 -0.52,-3.52 -0.55,-5.43 0.03,-2.89 0.55,-5.68 0.55,-8.51z"/>
     <path class="fil0" d="M16752.67 7666.83l-1126.7 -2967.46c-35.48,-93.52 -98.54,-168.08 -174.45,-219.87 -141.2,-137.62 -337.8,-223.22 -555.51,-223.22l-1787.78 0c-278.61,0 -522.39,140.36 -659.73,350.62 -22.02,29.28 -41.89,60.58 -56.32,95.92l-1143.05 2805.24c-87.14,213.67 13.53,450.31 224.72,528.49 211.33,78.11 453.06,-31.76 540.13,-245.39l850.36 -2087.13c25.79,8.08 51.9,15.09 78.81,20.63l-838.39 4372.32 0 81.87c0,0 296.8,96.91 902.53,152.74l0 2398.02c0,210.43 179.06,381.26 399.98,381.26 220.95,0 400,-170.83 400,-381.26l0 -2360.23c146.65,1.19 303.39,-0.83 469.51,-6.03l0 2366.26c0,210.43 179.03,381.26 399.98,381.26 220.95,0 400.04,-170.83 400.04,-381.26l0 -2415.9c334.34,-30.04 696.71,-73.44 1089.37,-134.86l-1055.6 -4466.35c8.37,-2.26 16.7,-4.43 24.93,-6.97l845.55 2227.35c85.92,225.98 328.17,349.64 541.18,276.27 213.14,-73.44 316.22,-316.22 230.43,-542.32z"/>
     <g>
      <path class="fil1" d="M8069.96 1099.45c132.57,0 252.58,-53.73 339.43,-140.58 86.85,-86.84 140.58,-206.87 140.58,-339.43 0,-132.57 -53.73,-252.59 -140.58,-339.43 -86.84,-86.85 -206.86,-140.58 -339.43,-140.58 -132.56,0 -252.59,53.73 -339.43,140.58 -86.85,86.85 -140.58,206.86 -140.58,339.43 0,132.56 53.73,252.58 140.58,339.43 86.85,86.85 206.87,140.58 339.43,140.58zm48.94 -331.52l-104.58 0c-0.28,-15.06 -0.41,-24.12 -0.41,-27.47 0,-33.74 5.58,-61.49 16.88,-83.37 11.15,-21.75 33.46,-46.29 67.06,-73.62 33.6,-27.18 53.68,-45.04 60.23,-53.53 10.18,-13.39 15.2,-28.17 15.2,-44.21 0,-22.16 -8.92,-41.27 -26.9,-57.02 -17.85,-15.9 -41.97,-23.84 -72.37,-23.84 -29.28,0 -53.68,8.36 -73.48,24.96 -19.65,16.73 -33.18,42.1 -40.57,76.27l-105.41 -13.39c3.06,-48.94 23.84,-90.35 62.46,-124.5 38.62,-34.17 89.37,-51.17 152.11,-51.17 66.09,0 118.66,17.29 157.69,51.72 39.04,34.43 58.56,74.45 58.56,120.33 0,25.23 -7.11,49.35 -21.48,71.94 -14.36,22.59 -44.89,53.4 -91.88,92.44 -24.26,20.08 -39.31,36.39 -45.17,48.66 -5.86,12.27 -8.51,34.16 -7.94,65.8zm-104.58 153.93l0 -114.6 104.58 0 0 114.6 -104.58 0zm-14.08 936.74l0 -623.61c-143.18,-16.05 -271.63,-80.9 -368.28,-177.55 -112.09,-112.09 -181.45,-266.97 -181.45,-437.99 0,-171.03 69.35,-325.9 181.45,-437.99 112.09,-112.1 266.97,-181.45 437.99,-181.45 171.03,0 325.9,69.34 437.99,181.45 112.1,112.09 181.45,266.96 181.45,437.99 0,171.02 -69.34,325.9 -181.45,437.99 -96.65,96.65 -225.09,161.51 -368.28,177.55l0 623.61 -139.43 0z"/>
      <path class="fil0" d="M10209.51 4712.64c0,-311.27 -324.02,-563.63 -723.75,-563.63l-2831.6 0c-399.77,0 -723.79,252.36 -723.79,563.63 0,20.49 1.64,40.78 4.32,60.58 -1.53,13.87 -4.32,27.4 -4.32,41.62l0 3733.19c0,210.08 175.57,380.5 392.13,380.5 216.6,0 392.17,-170.42 392.17,-380.5l0 -3271.82 41.02 0 167.04 1014.88 0 2156.26 -516.11 1631.2 516.11 0 0 2352.38c0,319.15 228.93,577.85 511.45,577.85 282.41,0 511.34,-258.7 511.34,-577.85l0 -2352.38 248.8 0 0 2352.38c0,319.15 228.9,577.85 511.42,577.85 282.47,0 511.34,-258.7 511.34,-577.85l0 -2352.38 567.13 0 -567.13 -1792.46 0 -1995 167.07 -1014.88 41.06 0 0 3259.38c0,214.47 175.61,388.27 392.13,388.27 216.63,0 392.17,-173.8 392.17,-388.27l0 -3809c0,-1.85 -0.52,-3.52 -0.55,-5.43 0.03,-2.89 0.55,-5.68 0.55,-8.51z"/>
      <path class="fil2" d="M8069.96 1677.14c641.05,0 1160.72,519.67 1160.72,1160.72 0,641.05 -519.67,1160.72 -1160.72,1160.72 -641.05,0 -1160.72,-519.67 -1160.72,-1160.72 0,-641.05 519.67,-1160.72 1160.72,-1160.72zm0 314.39c467.42,0 846.33,378.91 846.33,846.33 0,467.42 -378.91,846.33 -846.33,846.33 -467.42,0 -846.33,-378.91 -846.33,-846.33 0,-467.42 378.91,-846.33 846.33,-846.33z"/>
      <path class="fil1" d="M10100.81 1579.39c27.22,27.22 27.22,71.37 0,98.59 -27.22,27.22 -71.37,27.22 -98.59,0l-339.42 -339.42 -851.42 851.42c-27.22,27.22 -71.38,27.22 -98.6,0 -27.22,-27.22 -27.22,-71.38 0,-98.59l851.42 -851.42 -330.99 -330.99c-27.22,-27.22 -27.22,-71.38 0,-98.6 27.22,-27.22 71.38,-27.22 98.6,0l330.99 330.99 335.21 -335.21c27.22,-27.22 71.38,-27.22 98.6,0 27.22,27.22 27.22,71.38 0,98.59l-335.22 335.22 339.42 339.42z"/>
      <path class="fil1" d="M7376.39 2042.31c27.22,27.22 27.22,71.38 0,98.6 -27.22,27.22 -71.38,27.22 -98.6,0l-1093.65 -1093.65 0 530.46c0,38.48 -31.22,69.7 -69.7,69.7 -38.48,0 -69.7,-31.21 -69.7,-69.7l0.01 -697.08 -0.01 -0.49 0 -0.86 -0.01 -0.32 0.01 -0.53 0.01 -0.86 0 -0.28 0.02 -0.58 0.03 -0.85 0.01 -0.25 0.03 -0.6 0.06 -0.85 0.01 -0.22 0.06 -0.64 0.07 -0.85 0.01 -0.17 0.07 -0.68 0.1 -0.85 0.01 -0.14 0.1 -0.71 0.11 -0.85 0.02 -0.1 0.12 -0.75 0.13 -0.84 0.01 -0.07 0.14 -0.78 0.16 -0.84 0 -0.03 0.17 -0.81 0.17 -0.83 0 -0.01 0.2 -0.84 0.19 -0.79 0.01 -0.05 0.22 -0.83 0.19 -0.75 0.03 -0.08 0.23 -0.83 0.2 -0.71 0.04 -0.12 0.25 -0.82 0.22 -0.67 0.05 -0.16 0.28 -0.81 0.21 -0.63 0.06 -0.19 0.31 -0.82 0.22 -0.59 0.08 -0.21 0.02 -0.07 0.52 -1.29 0.1 -0.26 0.34 -0.8 0.22 -0.5 0.12 -0.29 0.37 -0.8 0.21 -0.47 0.15 -0.32 0.39 -0.79 0.21 -0.43 0.17 -0.35 0.41 -0.78 0.21 -0.41 0.2 -0.37 0.41 -0.78 0.21 -0.36 0.23 -0.41 0.43 -0.76 0.19 -0.34 0.27 -0.42 0.45 -0.75 0.19 -0.3 0.29 -0.45 0.47 -0.74 0.17 -0.27 0.33 -0.47 0.49 -0.74 0.16 -0.22 0.36 -0.51 0.52 -0.72 0.14 -0.2 0.39 -0.52 0.55 -0.71 0.12 -0.16 0.42 -0.55 0.57 -0.7 0.1 -0.13 0.47 -0.57 0.66 -0.77 0.51 -0.6 0.61 -0.68 0.05 -0.06 0.55 -0.61 0.63 -0.67 0.03 -0.03 0.61 -0.63 0.64 -0.65 0.65 -0.64 0.63 -0.62 0.03 -0.02 0.67 -0.63 0.61 -0.56 0.06 -0.05 0.68 -0.6 0.6 -0.51 0.77 -0.67 0.57 -0.47 0.13 -0.1 0.7 -0.56 0.55 -0.42 0.16 -0.13 0.71 -0.54 0.53 -0.39 0.19 -0.14 0.72 -0.53 0.51 -0.36 0.23 -0.15 0.73 -0.49 0.48 -0.34 0.26 -0.16 0.74 -0.48 0.45 -0.29 0.3 -0.18 0.75 -0.46 0.43 -0.26 0.33 -0.19 0.76 -0.44 0.41 -0.22 0.37 -0.21 0.77 -0.41 0.38 -0.21 0.4 -0.2 0.78 -0.41 0.36 -0.17 0.42 -0.21 0.79 -0.39 0.32 -0.15 0.47 -0.21 0.8 -0.37 0.29 -0.12 0.5 -0.22 0.81 -0.35 0.25 -0.1 0.54 -0.22 0.82 -0.32 0.21 -0.08 0.59 -0.22 0.82 -0.31 0.19 -0.06 0.63 -0.21 0.82 -0.28 0.15 -0.06 0.67 -0.21 0.82 -0.25 0.12 -0.04 0.71 -0.2 0.83 -0.24 0.09 -0.02 0.74 -0.2 0.83 -0.21 0.05 -0.01 0.79 -0.19 0.84 -0.2 0.01 0 0.83 -0.17 0.82 -0.18 0.02 0 0.84 -0.15 0.78 -0.14 0.07 -0.01 0.84 -0.14 0.75 -0.12 0.1 -0.01 0.85 -0.11 0.71 -0.1 0.14 -0.01 0.85 -0.1 0.68 -0.07 0.17 -0.01 0.86 -0.07 0.64 -0.06 0.21 -0.01 0.85 -0.06 0.61 -0.04 0.24 0 0.86 -0.03 0.57 -0.02 0.29 0 0.85 -0.02 0.53 0 0.32 0 0.86 0.01 0.49 0.01 697.08 -0.02c38.48,0 69.7,31.22 69.7,69.7 0,38.48 -31.21,69.7 -69.7,69.7l-530.46 0.01 1093.65 1093.65z"/>
     </g>
    </g>
   </g>
  </g>
 </g>
</svg>
